<?xml version="1.0" encoding="utf-8"?>
<!-- Generator: Adobe Illustrator 25.3.1, SVG Export Plug-In . SVG Version: 6.00 Build 0)  -->
<svg version="1.1" id="Camada_1" xmlns="http://www.w3.org/2000/svg" xmlns:xlink="http://www.w3.org/1999/xlink" x="0px" y="0px"
	 viewBox="0 0 749.82 658.04" style="enable-background:new 0 0 749.82 658.04;" xml:space="preserve">
<style type="text/css">
	.st0{fill:#FFFFFF;}
	.st1{fill:#71BA13;}
	.st2{fill:#999999;}
	.st3{fill:url(#SVGID_1_);}
	.st4{fill:url(#SVGID_2_);}
	.st5{fill:#E0E0E0;}
	.st6{fill:none;stroke:#FFFFFF;stroke-width:5;stroke-linecap:round;stroke-miterlimit:10;}
	.st7{fill:#EAA7A7;}
	.st8{fill:#CCCCCC;}
	.st9{fill:#331156;}
</style>
<g>
	<path class="st0" d="M748.75,411.73L748.75,411.73c-1.61-9.82-5.38-19.68-10.91-28.53c-2.41-3.85-5.18-7.54-8.26-11.01
		c1.59-6.94,2.61-13.7,3.05-20.15c0.6-8.85,0.01-17.64-0.56-24.31c-1.34-15.55-3.76-31.05-7.19-46.05l-0.21-0.91
		c-1.45-6.36-2.95-12.91-5.08-19.28l0.26-0.28c2.61-2.84,6.71-7.63,9.07-10.69c4.8-6.23,9.45-13.12,12.06-21.27
		c5.04-15.71,1.75-33.88-8.78-48.59c-5.06-7.06-11.56-13.37-19.35-18.75c-3.77-2.6-8.62-2.22-12.05,0.96
		c-0.45,0.42-0.85,0.86-1.22,1.33c-5.12-2.7-10.44-4.99-15.9-6.85c0.78-6.84,0.97-13.63,0.58-20.24
		c-0.38-6.35-1.22-12.35-2.49-17.84c-1.55-6.67-3.84-12.04-7-16.4c-0.39-0.44-0.78-0.88-1.17-1.33l-1.37-1.33
		c-0.35-0.34-0.72-0.65-1.13-0.91c-2.76-1.69-6.04-1.97-9.09-0.63c-4.43,1.95-6.72,6.41-5.84,11.41c0.02,0.14,0.06,0.34,0.09,0.52
		c0.02,0.15,0.03,0.31,0.05,0.46c0.05,0.61,0.09,1.23,0.09,1.84c0.01,1.02-0.04,2.03-0.16,3.01c-0.02,0.14-0.05,0.32-0.08,0.46
		l-0.02,0.13c-0.05,0.27-0.1,0.53-0.16,0.8c-0.13,0.61-0.28,1.22-0.46,1.82c-0.16,0.55-0.33,1.09-0.53,1.63
		c-0.09,0.26-0.19,0.51-0.29,0.76l-0.12,0.28c-0.25,0.55-0.53,1.1-0.82,1.64c-8.81-14.77-21.04-28.22-36.45-40.06
		c-17.63-13.55-39-24.22-65.33-32.63c-12.06-3.85-25.13-7.23-41.13-10.62c-5.49-1.17-10.92,2.14-12.11,7.36
		c-1.21,5.32,1.78,10.51,6.95,12.08c3.68,1.12,7.26,2.49,10.72,4.11c-7.64-0.96-15.69-2.94-24.1-5.92
		c-9.43-3.35-18.33-7.62-25.03-10.97l-1.56-0.78c-7.14-3.57-14.53-7.25-21.39-11.32c-1.96-1.16-3.67-2.26-5.24-3.36
		c-0.38-0.27-0.76-0.54-1.14-0.82l-0.3-0.23c-0.08-0.07-0.17-0.13-0.27-0.21l-0.13-0.1c-0.81-0.64-1.53-1.26-2.21-1.88
		c-1.56-1.43-2.71-2.64-3.66-3.87c-0.53-1.02-1.06-2.04-1.57-3.07c-0.52-1.07-1.27-2.04-2.19-2.84c-3.03-3.63-8.51-4.63-12.75-2.15
		c-4.64,2.72-6.27,8.5-3.78,13.44c0.81,1.61,1.78,3.22,2.97,4.93c2.86,5.39,6.07,10.6,9.6,15.6c-8.43-2.31-17.25-4.58-26.6-6.85
		c-9.83-2.38-19.41-4.81-28.54-8.27c-7.72-2.93-15.86-7.28-24.19-12.93c-8.81-5.96-16.76-12.53-25.26-19.53
		c-3.94-3.25-9.13-3.41-12.9-0.4c-4.03,3.21-5.06,9-2.35,13.19l17.49,27.03c-24.2-5.86-49.01-8.23-73.96-7.06
		c-8.24,0.39-16.91,1.24-25.76,2.53c-5.51-0.8-10.5,2.37-11.65,7.44c-0.78,3.44,0.28,7.12,2.63,9.56
		c-6.01-1.22-11.76-2.86-17.13-4.91c-6.2-2.36-13.08-5.91-20.45-10.57c-7.76-4.9-15.27-10.49-22.53-15.9
		c-4.13-3.08-9.71-1.8-12.73,1.22c-3.16,3.16-3.83,7.98-1.68,12c4.62,8.64,10.29,16.81,16.79,24.21c-2.46-0.62-4.87-1.27-7.22-1.93
		c-7.24-2.04-12.51-3.98-17.09-6.31c-5.48-2.79-9.8-5.99-14-10.36c-4.92-5.13-8.67-10.53-13-16.79l-0.2-0.3
		c-2.28-3.28-6.09-4.98-9.97-4.41c-3.79,0.55-6.9,3.21-8.11,6.93c-3.69,11.3-0.3,23.43,2.43,33.18l0.19,0.66
		c1.89,6.77,4.21,13.57,6.93,20.31c-0.74,0.24-1.47,0.56-2.17,0.97c-2.54,1.49-4.26,3.88-4.7,6.56
		c-3.16,18.9-8.22,37.46-15.05,55.27c-2.75-6.47-5.78-12.75-8.74-18.91c-1.14-2.36-3.21-4.1-5.83-4.9
		c-2.77-0.85-5.74-0.52-8.15,0.89c-2,1.17-3.52,3-4.3,5.17c-0.58,1.36-0.82,2.78-0.72,4.24c0.05,0.7,0.06,0.88-0.44,2.02
		c-0.29,0.66-0.97,1.91-1.53,2.92l-0.61,1.11c-2.04,3.79-3.75,7.26-5.23,10.59c-3.87,8.75-6.16,16.17-7.19,23.34
		c-1.24,8.63-0.84,17.14,1.24,26.02c0.72,3.07,1.59,6.11,2.53,9.06c-5.45-5.15-10.71-10.51-15.74-16.03
		c-2.15-2.36-5.42-3.49-8.76-3.02c-3.27,0.46-6.04,2.41-7.43,5.22c-3.7,7.5-1.32,15.06,0.59,21.14c0.26,0.84,0.53,1.67,0.77,2.48
		c1.47,4.99,3.46,11.56,5.79,18.08c4.99,13.94,10.33,24.66,16.81,33.72c7.69,10.75,16.55,19.03,26.35,24.59
		c7.22,4.1,14.92,6.68,22.25,8.41c-0.34,0.23-0.67,0.46-1.01,0.7c-25.23,17.79-38.57,44.8-38.57,78.11
		c0,27.46,8.72,53.58,25.21,75.53c15.31,20.38,36.82,35.9,60.83,43.96c10.44,36.05,24.53,76.12,56.31,102.65
		c18.93,15.8,41.63,26.19,57.06,32.62c20.3,8.47,41.58,14.76,63.25,18.71c18.16,3.31,36.79,4.96,56.14,4.96
		c24.94,0,51.05-2.75,78.76-8.27c21.42-4.26,43.88-10.3,66.76-17.94c21.39-7.14,39.81-15.64,56.29-25.98
		c10.64-6.68,19.47-12.44,28.01-18.87c6.12-4.62,12.16-9.5,18-14.23c2.61-2.12,5.23-4.23,7.85-6.33
		c16.45-13.13,32.7-28.21,40.17-49.51c0.77-2.19,1.41-4.45,1.93-6.82c2.37,0.25,4.78,0.41,7.22,0.49
		c10.17,0.31,25.24-0.06,38.57-6.88c10.87-5.56,20.09-14.06,28.43-22.42c9.27-9.29,17.88-18.66,21.28-31.14
		c1.83-6.71,2.38-13.67,2.7-20.2C750.02,423.63,749.7,417.51,748.75,411.73z M62.95,242.93L62.95,242.93
		C62.96,242.93,62.96,242.93,62.95,242.93C62.96,242.93,62.96,242.93,62.95,242.93z M98.27,277.75c-0.01,0-0.02,0-0.04-0.01
		C98.24,277.74,98.26,277.75,98.27,277.75L98.27,277.75z M588.25,247.61c0,0-0.01,0-0.01,0.01l0,0
		C588.24,247.62,588.25,247.62,588.25,247.61L588.25,247.61z M649.58,242.29c0,0,0.01,0,0.01,0l0,0
		C649.58,242.29,649.58,242.29,649.58,242.29z M684.49,247.4C684.49,247.4,684.49,247.4,684.49,247.4
		C684.49,247.4,684.49,247.4,684.49,247.4C684.49,247.4,684.49,247.4,684.49,247.4z M734.98,416.5L734.98,416.5c0,0,0,0.01,0,0.01
		C734.99,416.51,734.98,416.5,734.98,416.5z"/>
	<path class="st1" d="M662.7,241.95c0.15,0.02,0.44,0.07,0.44,0.07C663.13,242,662.94,241.97,662.7,241.95z"/>
	<path class="st1" d="M705.73,255.07C706.06,254.87,705.88,254.97,705.73,255.07L705.73,255.07z"/>
	<path class="st2" d="M605.12,374.57c-0.13,0.28-0.26,0.57-0.39,0.87c0.42,0.44,0.84,0.88,1.28,1.3c2.58,2.37,6.43,4.62,9.68,5.72
		c1.05,0.36,2.12,0.66,3.2,0.91c0.43,0.1,0.87,0.19,1.3,0.27c0.29,0.05,0.58,0.1,0.88,0.15c0,0,0.16,0.02,0.29,0.04
		c0.2,0.02,0.7,0.07,0.77,0.08c0.22,0.02,0.44,0.04,0.66,0.05c0.52,0.03,1.03,0.06,1.55,0.06c0.68,0.01,1.37-0.01,2.05-0.05
		c0.74-1.06,1.52-2.1,2.31-3.13c6.33-8.19,14.32-15.1,23.37-20.13c0.18-0.1,0.37-0.2,0.55-0.3c-4.54-2.25-9.08-4.01-14.02-5.76
		c-7.13-2.52-14.41-4.78-21.49-7.52c-0.7,1.7-1.41,3.39-2.11,5.09c-2.1,5.04-4.24,10.07-6.49,15.05
		C607.42,369.72,606.29,372.16,605.12,374.57z"/>
	<path class="st2" d="M728.08,221.88c-1.46,6.59-4.82,12.18-8.88,17.74c-2.27,3.11-4.7,6.08-7.32,9.02
		c-1.41,1.59-2.86,3.14-4.36,4.67c-0.6,0.6-1.18,1.25-1.84,1.79c-0.02,0.01-0.05,0.03-0.08,0.05h-0.1
		c-0.43-0.05-0.85,0.03-1.25,0.16c-0.08-0.05-0.15-0.09-0.17-0.09c-0.45-0.37-0.87-0.77-1.3-1.16c-1-0.95-1.96-1.97-2.88-2.99
		c-1.85-2.07-3.6-4.24-5.51-6.26c-0.7-0.75-1.44-1.46-2.21-2.16c4.87-2.25,8.97-6.06,11.92-10.54c4.64-7.04,6.05-15.9,5.41-24.17
		c-0.17-2.24-1.86-4.43-4.31-4.31c-2.19,0.09-4.5,1.9-4.31,4.31c0.13,1.67,0.18,3.35,0.14,5.03c-0.06,1.92-0.18,3.21-0.49,4.85
		c-0.62,3.3-1.56,6.1-3.17,8.82c-0.37,0.62-0.76,1.24-1.18,1.84c-0.06,0.07-0.29,0.39-0.37,0.49c-0.18,0.23-0.38,0.47-0.59,0.7
		c-0.95,1.1-2.01,2.14-3.17,3.06c-0.14,0.09-0.66,0.46-0.66,0.47c-0.24,0.16-0.48,0.32-0.74,0.47c-0.61,0.39-1.23,0.74-1.87,1.06
		c0,0-0.46,0.22-0.69,0.31c-0.21,0.08-0.61,0.23-0.69,0.26c-0.89,0.31-1.79,0.56-2.71,0.74c-1.22,0.24-2.45,0.35-3.68,0.35
		c-0.21-0.05-0.39-0.1-0.6-0.14c-0.62-0.11-1.25-0.1-1.87,0.01c-2.44-0.24-4.89-0.78-7.36-1.35c-2-0.46-4.03-0.93-6.04-1.25
		c-4.54-0.75-9.19-0.68-13.77-0.21c2.59-2.6,5.13-5.26,7.59-7.97c1.56-1.73,1.7-4.39,0-6.11c-0.15-0.15-0.32-0.26-0.48-0.39
		c-0.16-0.24-0.32-0.45-0.52-0.64c-1.79-1.79-4.28-1.47-6.1,0c-1.43,1.15-3.08,2.25-4.83,3.26c0.82-0.64,1.62-1.29,2.4-1.96
		c3.45-2.91,6.49-6.21,9.17-9.79c3.08-4.09,5.69-8.55,7.89-13.22c4.03-8.51,7.15-17.52,9.25-26.74
		c13.49,4.05,26.11,11.06,36.53,20.43c1.73,1.55,4.39,1.71,6.1,0c0.69-0.69,1.09-1.63,1.2-2.61c3.49,4.64,6.22,9.81,7.79,15.42
		C729.04,209.28,729.42,215.84,728.08,221.88z"/>
	<path class="st0" d="M561.63,343.86c-0.27-0.47-0.44-1-0.52-1.56c-5.28-11.35-13.3-20.91-24.03-28.6
		c-19.09-13.66-46.34-20.89-78.78-20.89c-32.57,0-60.03,7.23-79.43,20.91c-21.39,15.08-32.23,37.25-32.23,65.89
		c0,61.23,49.81,111.04,111.04,111.04s111.04-49.81,111.04-111.04c0-13.1-2.24-24.82-6.64-35.13
		C561.92,344.28,561.77,344.09,561.63,343.86z"/>
	<path class="st2" d="M718.45,347.71c-0.2,6.6-1.08,13-2.46,19.4c-0.95-0.77-1.92-1.52-2.91-2.25
		c-7.96-5.87-17.64-10.54-27.48-12.01c-2.06-0.31-4.12-0.44-6.17-0.41c-5.82,0.07-11.58,1.39-17.08,3.46
		c-0.09-0.07-0.17-0.15-0.28-0.21c-11.63-6.79-24.66-10.4-37.25-14.88c-1.6-0.56-3.14-1.13-4.66-1.71c0.18-0.52,0.37-1.04,0.54-1.55
		c1.62-5.11,2.58-10.39,3.04-15.72c0.89-10.42-0.45-21-2.97-31.12c-1.39-5.58-3.17-11.06-5.18-16.47c-1-2.68-2.04-5.35-3.14-7.99
		c-0.17-0.43-0.36-0.85-0.55-1.27c2.2-1.15,4.28-2.54,6.22-3.88c7.14-4.92,14.03-10.23,20.6-15.9c0.01,0,0.02,0,0.02-0.01
		c0.2-0.1,1.05-0.47,1.09-0.51c1.01-0.39,2.04-0.74,3.07-1.02c1.18-0.32,2.38-0.6,3.58-0.84c0.63-0.13,1.25-0.23,1.89-0.33
		c0.39-0.07,0.77-0.13,1.15-0.18c0.08-0.01,0.14-0.02,0.2-0.02c0.06-0.01,0.13-0.02,0.21-0.02c2.7-0.32,5.43-0.52,8.15-0.52
		c1.17,0.01,2.36,0.05,3.54,0.14c0.1,0.01,0.6,0.03,1,0.07c0.03,0.01,0.13,0.02,0.33,0.07c0.29,0.06,0.59,0.1,0.89,0.17
		c3.86,0.78,7.74,1.75,11.64,2.3c1.35,0.2,2.68,0.33,4.03,0.4c0.17,0.05,0.36,0.08,0.52,0.14c0.32,0.09,0.63,0.23,0.94,0.32
		c0.05,0.01,0.05,0.01,0.08,0.01c0.05,0.03,0.09,0.06,0.17,0.09c1.14,0.55,2.23,1.21,3.26,1.94c0.09,0.06,0.47,0.37,0.47,0.37
		c0.14,0.1,0.28,0.22,0.41,0.33c0.51,0.44,1.01,0.9,1.5,1.37c1.01,0.98,1.97,2,2.9,3.06c1.84,2.08,3.59,4.24,5.52,6.25
		c2.5,2.59,5.14,5.03,8.88,5.34c0.38,0.03,0.74-0.02,1.09-0.12c2.06,5.88,3.5,12.03,4.93,18.05c1.74,7.25,3.22,14.55,4.45,21.9
		C717.04,318.23,718.88,333.06,718.45,347.71z"/>
	<path class="st2" d="M668.43,162.51c-1.63,9.13-4.46,18.6-8.05,26.82c-1.83,4.2-3.86,8.19-6.27,11.92
		c-2.39,3.7-5.15,7.14-8.44,10.21c-3.58,3.36-7.05,5.84-11.29,8.53c-4.35,2.74-8.85,5.21-13.34,7.66c-1.67,0.92-2.48,3.07-1.99,4.88
		c0.53,1.91,2.25,3.04,4.16,3.16c4.97,0.35,9.9-0.13,14.66-1.29c-1.41,1.3-2.84,2.58-4.29,3.83c-0.14,0.09-0.29,0.16-0.41,0.25
		c-0.49,0.32-0.91,0.72-1.24,1.17c-0.66,0.56-1.3,1.15-1.96,1.7c-4.06,3.39-7.9,6.37-12.18,9.45c-2.16,1.55-4.34,3.08-6.56,4.53
		c-2.04,1.33-4.08,2.56-6.17,3.13c-2.1,0.58-3.8,0.3-5.6-0.79c-0.25-0.15-0.49-0.32-0.74-0.48c-0.1-0.07-0.17-0.1-0.24-0.15
		c-0.02-0.02-0.07-0.06-0.14-0.12c-0.53-0.43-1.04-0.89-1.53-1.36c-0.89-0.84-1.7-1.73-2.53-2.62c0.87-1.86-0.14-4.37-1.83-5.36
		c-2.19-1.29-4.52-0.35-5.9,1.54c-1.74,2.37-4.52,4.82-7.4,6.45c-0.77,0.45-1.58,0.85-2.39,1.22c-0.14,0.07-0.23,0.1-0.3,0.14
		c-0.08,0.02-0.17,0.06-0.32,0.12c-0.43,0.14-0.84,0.3-1.27,0.44c-1.98,0.63-4.07,1.04-5.96,1.22c-4.26,0.43-8.68,0.67-12.95,0.43
		c-3.95-0.23-7.09-1.44-10.48-3.84c-1.24-0.89-2.75-2.19-4.12-3.49c-1.62-1.53-3.16-3.15-4.66-4.81c-2.89-3.22-5.67-6.54-8.48-9.83
		c-6.02-7.04-12.01-14.09-17.99-21.16c-6.83-8.07-13.63-16.17-20.42-24.29c-1.5-1.79-4.55-1.54-6.11,0c-1.76,1.77-1.5,4.3,0,6.1
		c12.61,15.08,25.28,30.09,38.04,45.03c0.7,0.81,1.39,1.63,2.08,2.45c-0.14,0.05-0.29,0.09-0.41,0.15
		c-5.96,2.6-12.69,3.39-19.47,2.78c-6.15-0.56-12.79-2.79-18.36-5.8c-6.26-3.39-11.18-7.38-16.17-12.43
		c-5.33-5.41-10.25-11.26-15.13-17.08c-5.41-6.45-10.2-13.28-14.35-20.68c-1.14-2.02-3.92-2.7-5.9-1.54
		c-2.05,1.2-2.69,3.86-1.55,5.9c4.09,7.28,8.86,14.09,14.16,20.55c4.24,5.16,8.6,10.31,13.16,15.22
		c-9.66-1.29-18.98-4.62-27.41-9.88c-0.15-0.09-1.04,0.86-1.17,0.77c0.01-0.18,0.01,0.18,0,0c-0.1-2.27-2.19-2.4-4.6-2.3
		c-0.74,0.02-0.41-2.35-1.15-2.3c-2.96-2.44-5.73-6.29-8.53-9.24c-5.31-5.56-10.46-11.28-15.67-16.94
		c-5.34-5.8-10.44-11.16-13.88-18.28c-1.01-2.1-4-2.66-5.9-1.55c-2.14,1.25-2.56,3.8-1.55,5.9c3.24,6.73,8.24,12.41,13.24,17.86
		c5.38,5.85,10.74,11.73,16.17,17.54c1.58,1.67,3.17,3.3,4.81,4.9c-6.4,1.05-12.74,2.39-19.15,3.37c-4.74,0.72-9.94,1.17-14.96,0.98
		c-4.91-0.18-8.83-0.81-13.71-2.06c-18.81-4.82-34.76-16.63-48.3-30.54c-8.03-8.25-15.29-17.2-22.42-26.21
		c-1.45-1.83-4.59-1.52-6.11,0c-1.81,1.81-1.45,4.27,0,6.1c12.93,16.37,26.5,32.55,43.75,44.54c5.19,3.6,10.67,6.73,16.39,9.29
		c-1.76,0.7-3.58,1.32-5.58,1.91c-2.37,0.68-4.77,1.24-7.19,1.71c-1.14,0.23-2.28,0.43-3.42,0.61c-1.17,0.18-2.24,0.33-3.04,0.44
		c-10,1.23-20.16,1.67-30.23,1.85c-10.5,0.2-21.13-0.2-31.3-2.16c-8.96-1.73-17-4.41-24.65-8.63c-4.38-2.43-8.06-4.96-11.48-8.01
		c-3.74-3.32-6.64-6.66-9.14-10.48c-1.27-1.96-3.82-2.77-5.9-1.55c-1.93,1.13-2.83,3.95-1.54,5.9
		c10.37,15.86,27.72,25.75,45.87,30.1c7.96,1.91,16.11,2.88,24.29,3.27c-5.22,4.74-10.01,9.96-15.48,14.42
		c-0.23,0.18-0.45,0.36-0.67,0.54c-0.07,0.06-0.1,0.08-0.15,0.13c-0.03,0.01-0.08,0.05-0.16,0.1c-0.51,0.38-1.02,0.76-1.54,1.13
		c-1.05,0.71-2.12,1.39-3.23,2.02c-0.48,0.28-0.99,0.54-1.5,0.79c-0.25,0.13-0.51,0.25-0.76,0.38c0,0-0.52,0.23-0.7,0.32
		c-0.16,0.07-0.38,0.16-0.43,0.17c-0.39,0.15-0.79,0.3-1.2,0.44c-0.75,0.26-1.51,0.48-2.27,0.69c-5.97,1.61-12.13,1.69-18.46,1.85
		c-13.5,0.32-27.02-0.36-40.5-1.23c-6.21-0.41-13.01-0.61-18.87-1.5c-5.89-0.89-10.36-2.38-15.19-5.35
		c-0.9-0.55-1.76-1.14-2.61-1.76c-0.07-0.08-0.13-0.17-0.21-0.25c-0.37-0.37-0.81-0.64-1.28-0.85c-7.6-5.92-13.81-14.26-19.44-22.01
		c-1.37-1.87-3.75-2.81-5.9-1.54c-1.85,1.08-2.92,4-1.54,5.9c5.66,7.79,11.47,15.52,18.66,21.91c-2.78,2.7-5.68,5.28-8.64,7.79
		c-2.15,1.82-4.3,3.63-6.48,5.41c-1.66,1.33-4.04,2.44-6.08,3.75c-2.14,1.38-4.09,3.01-6.38,4.16c-0.97,0.47-1.84,0.81-3.15,1.2
		c-1.32,0.38-2.68,0.66-4.03,0.91c-2.52,0.45-4.75,0.92-6.97,0.47c-2.98-0.6-5.95-0.93-8.98-1.1c-0.36-0.02-0.71,0.03-1.06,0.11
		c-0.77-0.13-1.55-0.28-2.31-0.44c-0.58-0.17-1.15-0.2-1.73-0.07c-0.58,0.02-1.1,0.2-1.6,0.51c-0.51,0.28-0.91,0.64-1.22,1.12
		c-0.38,0.41-0.63,0.91-0.77,1.46c-0.25,1.1-0.2,2.35,0.44,3.32c0.59,0.91,1.48,1.76,2.58,1.99c1.75,0.36,3.51,0.66,5.28,0.91
		c0.58,0.17,1.15,0.21,1.73,0.07c0.33-0.01,0.64-0.09,0.95-0.21c1.31,0.11,2.55,0.26,3.9,0.54c1.7,0.36,3.34,0.54,5,0.52
		c-0.21,0.1-0.41,0.2-0.62,0.29c-0.06,0.02-0.09,0.03-0.16,0.06c-0.51,0.17-1.01,0.36-1.53,0.52c-1.1,0.33-2.24,0.59-3.39,0.78
		c-0.05,0.01-0.25,0.05-0.41,0.07c-0.16,0.02-0.44,0.07-0.51,0.07c-0.55,0.07-1.12,0.12-1.68,0.15c-1.21,0.08-2.4,0.12-3.61,0.1
		c-2.42-0.01-4.82-0.18-7.21-0.44c-10.4-1.12-22.05-3.28-31.58-7.95c-9.22-4.52-16.4-10.94-22.87-19.12
		c-6.11-7.74-11.43-18.15-15.16-27.72c-2.39-6.12-4.43-12.38-6.33-18.66c-0.71-2.36-1.4-4.73-2.09-7.1
		c12.65,12.81,26.41,24.52,41.09,34.99c1.53,1.1,3.96,0.6,5.22-0.67c1.35-1.36,1.64-3.58,0.68-5.23c-3.8-6.46-7.06-13.35-9.8-20.19
		c-2.85-7.12-5.57-14.4-7.55-21.82c-1.93-7.25-2.76-14.25-1.82-21.78c0.78-6.21,3.21-13.77,5.8-19.66
		c1.67-3.78,3.54-7.48,5.51-11.11l0.69-1.28c4.69,10.13,8.89,20.43,11.25,31.49c0.75,3.53,6.26,4.31,7.89,1.04
		c10.01-20.23,17.76-41.58,22.92-63.56c0.99-4.22,1.87-8.45,2.68-12.71c1.16,1.02,2.3,2.09,3.5,3.08c3.67,3.05,7.51,4.96,12.39,4.12
		c2.81-0.48,3.85-4.13,2.58-6.34c-9.51-16.46-16.49-34.18-20.32-52.91c-0.25-1.24-0.47-2.48-0.64-3.74
		c6.33,8.27,13.39,15.82,22.68,21.05c12.56,7.09,27.05,10.39,41,13.5c8.79,1.96,17.72,3.47,26.74,3.63
		c4.39,0.07,5.71-5.83,2.17-8.04c-10.18-6.37-19.59-14.62-27.34-23.91c7.81,5.18,15.92,9.85,24.64,13.45
		c15.73,6.5,32.92,9.08,49.87,9.22c9.49,0.08,18.98-0.62,28.39-1.83c1.84-0.24,3.7-1.17,4.16-3.17c0.44-1.92-0.32-3.8-1.99-4.87
		c-7.55-4.84-15.62-8.87-24.03-12.01c24.22-1.43,48.85,0.7,72.37,6.29c8.94,2.13,17.76,4.75,26.42,7.83
		c3.53,1.27,6.86-3.28,4.88-6.34c-6.04-9.32-12.08-18.64-18.12-27.97c9.01,6.6,18.45,12.56,28.77,16.94
		c9.71,4.13,19.83,6.99,30.04,9.54c10.25,2.53,20.51,4.96,30.68,7.75c11.86,3.24,23.61,6.83,35.28,10.72
		c1.79,0.6,3.95-0.4,4.87-1.99c0.91-1.54,0.78-4.01-0.67-5.22c-6.58-5.44-12.5-11.36-17.81-17.78c5.14,2.85,10.43,5.45,15.64,8.11
		c17.72,9.02,36.23,17.34,56.1,20.06c11.39,1.54,22.89,1.37,34.08-1.44c3.14-0.79,4.19-4.97,1.9-7.21
		c-2.33-2.29-4.78-4.44-7.33-6.48c5.5,1.63,10.96,3.4,16.32,5.36c6.31,2.28,12.51,4.81,18.55,7.64
		c19.91,9.33,37.57,21.36,52.07,37.76c7.57,8.55,14.07,18.39,18.91,29.27c0.94,2.13,4.05,2.63,5.9,1.55
		c0.46-0.28,0.83-0.62,1.13-0.99c6.51-4.29,11.29-10.59,13.88-17.72c0.58,3.05,0.93,6.13,1.18,9.1
		C670.49,143.96,670.03,153.58,668.43,162.51z"/>
	<path class="st1" d="M280.91,335.42c-0.08,0.07-0.13,0.1-0.16,0.1C280.83,335.54,280.87,335.49,280.91,335.42z"/>
	<linearGradient id="SVGID_1_" gradientUnits="userSpaceOnUse" x1="125.3507" y1="286.0619" x2="615.3953" y2="286.0619">
		<stop  offset="1.118836e-07" style="stop-color:#EAD2A6"/>
		<stop  offset="1" style="stop-color:#E6BD7A"/>
	</linearGradient>
	<path class="st3" d="M597.5,329.61c3.88-0.07,6.73,1.78,9.97,3.6c1.6,0.9,3.17,1.71,4.73,2.46c1.33-4.13,2.35-8.3,2.79-12.51
		c1.09-10.37-0.08-20.43-2.6-30.43c-1.27-5.06-2.87-10.04-4.65-14.94c-0.89-2.45-1.83-4.89-2.81-7.32
		c-0.17-0.42-0.34-0.83-0.51-1.25c0,0.01-0.12-0.28-0.17-0.42c-0.05-0.1-0.1-0.22-0.1-0.22c-0.12-0.26-0.24-0.52-0.38-0.77
		c-0.04-0.08-0.13-0.24-0.23-0.4c-0.56,0.01-1.11,0-1.68-0.06c-5.56-0.59-9.65-3.98-13.32-7.9c-1.61,1.4-3.34,2.65-5.23,3.7
		c-4.64,2.6-9.67,3.79-14.94,4.25c-4.59,0.4-9.4,0.73-14,0.24c-4.83-0.51-9.27-2.07-13.24-4.89c-4.46-3.17-8.3-7.07-11.92-11.17
		c-0.35,0.56-0.81,1.04-1.44,1.31c-8.15,3.56-17,4.86-25.83,3.73c-12.33-1.57-23.3-7.24-32.66-15.07c-0.17,0.02-0.33,0.05-0.5,0.05
		c-7.91-0.02-15.86-1.25-23.39-3.67c-6.75-2.17-13.27-5.24-19.17-9.18c-1.17-0.78-2.3-1.6-3.41-2.44
		c-10.58,1.06-21.04,3.88-31.74,5.05c-10.35,1.13-20.57-0.02-30.32-2.93c-10.16,5.92-21.71,8.3-33.29,9.5
		c-9.19,0.95-18.48,1.41-27.74,1.51c-0.29,0.33-0.61,0.64-0.99,0.89c-0.66,0.44-1.31,0.89-1.95,1.35c-0.1,0.07-0.54,0.4-0.72,0.54
		c-0.16,0.13-0.7,0.55-0.63,0.5c-1.12,0.91-2.22,1.85-3.29,2.82c-2.21,2-4.33,4.09-6.45,6.18c-4.34,4.27-8.76,8.53-13.87,11.89
		c-11.14,7.33-24.84,7.28-37.71,7.34c-13.9,0.06-27.77-0.83-41.63-1.77c-6.78-0.46-13.72-0.75-20.3-2.59
		c-4.38-1.23-8.55-3.19-12.37-5.68c-2.77,2.73-5.66,5.32-8.62,7.85c-3.46,2.96-6.92,6.23-10.75,8.69c-1.83,1.18-3.8,2.08-5.58,3.33
		c-1.68,1.18-3.32,2.4-5.16,3.32c-1.42,0.71-2.88,1.27-4.36,1.75c0.1,0.29,0.17,0.59,0.2,0.89c11.18-2.1,23.23-3.18,36-3.18
		c59.55,0,100.02,22.69,114.11,62.19c0.05-0.2,0.11-0.4,0.15-0.6c0.24-1.07,0.28-1.32,0.33-2.28c-0.01-0.2-0.01-0.32-0.01-0.4
		c-0.02-0.05-0.03-0.09-0.04-0.13c-0.11-0.17-0.32-0.58-0.32-0.58c-0.81-1.28-1.87-2.35-2.51-3.74c-1.01-2.18-1.13-4.57,0.03-6.74
		c0.79-1.49,2.09-2.77,3.28-3.96c2.48-2.46,5.32-4.65,8.33-6.44c3.07-1.82,6.52-3.45,10.01-4.2c4.26-0.91,8.31-0.18,12.46,0.9
		c14.42,3.75,28.57,8.47,42.38,14.06c5.9-9.91,13.87-18.48,23.83-25.51c20.96-14.78,50.26-22.59,84.73-22.59
		c54.35,0,92.8,18.9,109.81,52.23c5.86-2.31,11.94-3.94,18.18-4.95C589.96,330.3,593.77,329.68,597.5,329.61z"/>
	<path class="st1" d="M603.84,374.52c0.23,0.22,0.44,0.45,0.66,0.68C604.08,374.42,603.11,373.81,603.84,374.52z"/>
	<path class="st1" d="M604.11,376.63C603.81,377.09,604.04,376.76,604.11,376.63L604.11,376.63z"/>
	<linearGradient id="SVGID_2_" gradientUnits="userSpaceOnUse" x1="135.3822" y1="484.3653" x2="735.4669" y2="484.3653">
		<stop  offset="1.118836e-07" style="stop-color:#EAD2A6"/>
		<stop  offset="1" style="stop-color:#E6BD7A"/>
	</linearGradient>
	<path class="st4" d="M735.36,420.84c-0.07-1.25-0.16-2.5-0.3-3.75c-0.03-0.28-0.07-0.54-0.1-0.82c0-0.02-0.01-0.13-0.02-0.22
		c-0.03-0.16-0.07-0.43-0.08-0.48c-0.03-0.28-0.08-0.55-0.13-0.82c-0.36-2.12-0.82-4.21-1.37-6.27c-0.58-2.14-1.25-4.23-2.04-6.3
		c-0.22-0.59-0.44-1.16-0.68-1.74c-0.01-0.05-0.11-0.28-0.17-0.43c-0.07-0.15-0.17-0.4-0.2-0.45c-0.43-0.94-0.86-1.89-1.32-2.82
		c-1.98-3.97-4.32-7.72-6.96-11.28c-0.08-0.1-0.11-0.15-0.15-0.2c-0.01-0.01-0.03-0.05-0.07-0.08c-0.13-0.16-0.25-0.32-0.38-0.49
		c-0.35-0.43-0.69-0.86-1.05-1.28c-0.71-0.85-1.44-1.69-2.19-2.51c-1.45-1.58-2.97-3.09-4.54-4.54c-0.87-0.79-1.76-1.56-2.67-2.31
		c-0.37-0.31-0.75-0.61-1.13-0.91c-0.03-0.03-0.24-0.2-0.37-0.3c-0.14-0.1-0.36-0.26-0.39-0.3c-1.77-1.31-3.61-2.55-5.5-3.69
		c-1.83-1.12-3.7-2.14-5.64-3.06c-0.56-0.28-1.13-0.53-1.69-0.78c-0.25-0.12-0.49-0.22-0.75-0.33c-0.03-0.01-0.07-0.02-0.13-0.05
		c-0.97-0.39-1.93-0.76-2.91-1.1c-5.26-1.85-10.19-2.96-15.69-2.46c-0.26,0.02-0.53,0.06-0.79,0.09c-2.23,0.28-4.74,0.91-7,1.62
		c-1.21,0.37-2.39,0.77-3.58,1.21c-0.56,0.21-1.12,0.41-1.68,0.64c-0.26,0.1-0.53,0.21-0.78,0.32c-0.02,0-0.03,0.01-0.05,0.01
		c-4.41,1.9-8.6,4.24-12.54,6.97c-2.08,1.45-3.11,2.23-4.99,3.85c-1.82,1.55-3.55,3.2-5.22,4.92c-3.46,3.61-5.77,6.6-8.41,10.8
		c-1.23,1.98-3.83,2.76-5.9,1.54c-0.21-0.13-0.4-0.28-0.6-0.44c-9.62,0.13-19.27-3.8-26.11-10.56c-2.14-2.12-4.2-4.54-3.31-7.78
		c0.39-1.4,1.24-2.76,1.87-4.07c0.52-1.09,1.04-2.17,1.54-3.27c2.28-4.87,4.43-9.79,6.51-14.73c1.17-2.77,2.37-5.58,3.5-8.43
		c-2.14-1-4.26-2.07-6.33-3.26c-0.7-0.39-1.39-0.81-2.09-1.22c-0.32-0.2-0.64-0.39-0.99-0.58c-0.08-0.05-0.47-0.23-0.58-0.29
		c-0.2-0.07-0.39-0.13-0.59-0.17c-0.11,0-0.39-0.05-0.44-0.05c-0.81,0-1.61,0.03-2.43,0.1c-3.34,0.28-6.04,0.63-9.29,1.23
		c-5.04,0.92-10.13,2.27-14.88,4.11c4.15,10.73,6.3,22.74,6.3,35.93c0,66.3-53.94,120.24-120.24,120.24s-120.24-53.94-120.24-120.24
		c0-14.87,2.81-28.39,8.28-40.28c-6.59-2.63-13.25-5.07-19.99-7.29c-6.99-2.3-14.07-4.38-21.2-6.21c-3.46-0.9-6.1-1.27-9.32-0.22
		c-1.7,0.55-2.43,0.89-4.12,1.76c-1.32,0.69-2.61,1.46-3.85,2.3c-1.44,0.97-2.16,1.55-3.57,2.84c-0.21,0.18-1.5,1.64-2.29,2.46
		c0.15,0.21,0.29,0.41,0.44,0.61c0.82,1.1,1.6,2.12,2.15,3.39c1.45,3.39,0.63,7.51-0.52,10.92c-1.08,3.17-2.69,6.13-4.21,9.12
		c1.27,6.5,1.92,13.37,1.92,20.6c0,66.3-53.94,120.24-120.24,120.24c-8.76,0-17.31-0.95-25.55-2.75c0.89,3,1.78,5.99,2.7,8.97
		c5.61,17.99,12.17,35.82,21.68,52.15c9.81,16.86,22.8,30.97,39.12,41.71c3.26,2.14,6.57,4.18,9.95,6.13
		c14.43,8.37,29.92,15.15,45.58,20.68c19.7,6.97,40.19,11.96,60.93,14.63c42.93,5.53,86.55,0.98,128.56-8.75
		c21.36-4.95,42.57-11.1,63.13-18.71c18.43-6.81,35.1-16.3,51.52-27c8.98-5.87,17.57-12.13,25.88-18.93
		c8.15-6.66,16.64-12.93,24.59-19.83c13.87-12.05,27.29-27.44,29.4-46.43c-5.03-1.48-9.88-3.55-14.39-6.35
		c-1.99-1.22-2.75-3.84-1.55-5.9c1.16-1.98,3.92-2.77,5.9-1.54c2.14,1.31,4.74,2.69,6.79,3.55c10.28,4.37,21.28,5.15,32.34,4.65
		c5.72-0.25,11.18-0.71,16.65-2.45c2.59-0.82,4.24-1.54,6.6-2.76c2.31-1.21,4.53-2.58,6.68-4.06c4.08-2.83,7.87-6.08,11.72-9.6
		c4.15-3.81,8.14-7.79,11.96-11.93c3.59-3.91,6.64-7.41,9.2-12.01c2.42-4.37,3.7-9.75,4.27-14.75
		C735.28,432.7,735.67,426.76,735.36,420.84z M252.33,544.28c6.22-1.45,12.59-2.25,18.98-2.66c10.96-0.71,21.98-0.31,32.95-0.17
		c11.27,0.15,22.54,0.29,33.82,0.44c2.43,0.03,4.21,1.96,4.31,4.31c0.1,2.31-2.05,4.34-4.31,4.31c-6.34-0.08-12.69-0.16-19.04-0.24
		c-10.98-0.15-21.97-0.37-32.94-0.4c-10.65-0.03-21.2,0.35-31.47,2.74c-2.28,0.53-4.67-0.69-5.31-3.01
		C248.72,547.41,250.07,544.81,252.33,544.28z M700.13,396.98c-3.13-0.31-5.66,0.16-8.68,1.06c-1.31,0.38-2.61,0.82-3.9,1.29
		c-0.56,0.2-1.12,0.4-1.67,0.62c-0.35,0.14-0.69,0.28-1.04,0.41c-0.08,0.03-0.13,0.06-0.17,0.07c-0.01,0.01-0.01,0.01-0.03,0.01
		c-4.13,1.77-8.1,3.98-11.7,6.67c-0.07,0.06-0.76,0.6-0.93,0.74c-0.45,0.38-0.89,0.76-1.32,1.15c-0.76,0.68-1.5,1.39-2.21,2.13
		c-0.77,0.81-1.51,1.66-2.22,2.53c-0.09,0.13-0.52,0.69-0.59,0.79c-0.3,0.41-0.59,0.83-0.86,1.27c-1.98,3.05-3.22,6.11-4.28,9.47
		c2.02-1.53,4.12-2.97,6.33-4.19c3.75-2.07,7.78-3.52,12.03-3.95c4.69-0.48,8.72,1.33,11.63,5c5.12,6.45,7.86,14.9,7.05,23.15
		c-0.43,4.3-1.62,8.68-5.12,11.54c-3.31,2.7-7.76,4.04-11.92,4.8c-8.64,1.58-17.24,0.49-25.26-3.02c-2.14-0.94-2.61-4.07-1.54-5.9
		c1.27-2.17,3.76-2.48,5.9-1.55c6.2,2.73,13.88,3.34,20.53,1.76c1.59-0.38,3.2-0.84,4.7-1.47c0-0.01,0.81-0.4,0.82-0.4
		c0.26-0.14,0.53-0.3,0.79-0.46c0.12-0.07,0.2-0.11,0.26-0.15c0.02-0.02,0.06-0.06,0.14-0.14c0.23-0.21,0.47-0.44,0.68-0.69
		c0-0.06,0.39-0.67,0.44-0.75c0.09-0.16,0.15-0.24,0.18-0.29c0.01-0.07,0.03-0.16,0.09-0.36c0.23-0.74,0.41-1.47,0.56-2.22
		c0.01-0.05,0.05-0.25,0.07-0.37c0.05-0.43,0.08-0.85,0.1-1.28c0.05-0.71,0.07-1.43,0.06-2.14c-0.05-3.09-0.59-5.65-1.81-8.85
		c-0.28-0.74,0.02-0.06-0.31-0.71c-0.21-0.43-0.41-0.86-0.63-1.28c-0.37-0.7-0.77-1.39-1.2-2.06c-0.83-1.28-1.23-1.96-2.45-3
		c-0.03-0.02-0.05-0.03-0.07-0.06c-0.22-0.15-0.45-0.26-0.68-0.38c-0.1-0.02-0.4-0.12-0.41-0.12c-0.41-0.07-0.82-0.11-1.67-0.07
		c0.03,0-0.93,0.1-0.93,0.09c-0.25,0.03-0.51,0.08-0.76,0.14c-0.77,0.15-1.54,0.36-2.3,0.59c-2.84,0.89-5.56,2.43-8.33,4.32
		c-4.82,3.29-10.42,7.57-13.09,12.91c-1.04,2.09-3.99,2.67-5.9,1.55c-2.14-1.25-2.52-3.78-1.54-5.9c2.21-4.81,3.51-11.04,5.23-16.46
		c1.59-5,3.7-9.79,6.91-13.97c3.14-4.09,6.91-7.52,11.18-10.43c4.12-2.82,8.63-4.99,13.27-6.8c5.2-2.02,10.89-3.83,16.54-3.28
		c2.42,0.23,4.21,1.78,4.31,4.31C704.55,394.84,702.38,397.18,700.13,396.98z"/>
	<path class="st1" d="M604.66,375.61c-0.15,0.33-0.31,0.66-0.51,0.96c0,0.01,0,0.01-0.01,0.01
		C604.63,376.33,604.74,375.97,604.66,375.61z"/>
	<path class="st1" d="M112.96,288.24C113.11,288.19,113.06,288.21,112.96,288.24L112.96,288.24z"/>
	<path class="st0" d="M271.97,379.6c0-28.71-10.64-50.88-31.64-65.91c-19.09-13.66-46.34-20.89-78.78-20.89
		c-32.57,0-60.03,7.23-79.43,20.91c-21.39,15.08-32.23,37.25-32.23,65.89c0,61.23,49.81,111.04,111.04,111.04
		S271.97,440.83,271.97,379.6z"/>
	<path class="st5" d="M271.97,379.61c0,61.22-49.82,111.04-111.04,111.04c-27.39,0-52.49-9.97-71.88-26.48
		c-40.43-42.86-41.32-109.4-2.63-153.29c19.07-11.85,44.9-18.07,75.13-18.07c32.45,0,59.68,7.22,78.78,20.89
		C261.33,328.72,271.97,350.9,271.97,379.61z"/>
	<path class="st5" d="M569.87,379.61c0,61.22-49.82,111.04-111.04,111.04c-27.39,0-52.49-9.97-71.88-26.48
		c-40.43-42.86-41.32-109.4-2.63-153.29c19.07-11.85,44.9-18.07,75.13-18.07c32.45,0,59.68,7.22,78.78,20.89
		C559.23,328.72,569.87,350.9,569.87,379.61z"/>
	<path class="st6" d="M588.25,252.56c6.53-4.81,12.83-10.09,16.55-17.22c2.37-4.55,3.55-9.63,4.19-14.71
		c2.81-22.32-5.08-45.75-20.8-61.83"/>
	<path class="st7" d="M730.41,431.8c-1.36,16.93-9.87,33.3-23.35,43.64c-7.74,5.92-14.31,13.81-23.96,15.24
		c-3.09,0.46-6.25,0.49-9.39,0.56c-8.63,0.21-17.24,0.67-25.84,1.38c-2.23,0.18-4.54,0.43-6.71,0.98c-2.02-0.59-4.03-1.29-5.99-2.13
		c-2.05-0.86-4.65-2.24-6.79-3.55c-1.98-1.23-4.74-0.44-5.9,1.54c-1.2,2.06-0.44,4.68,1.55,5.9c2.76,1.71,5.66,3.15,8.64,4.36
		c-0.45,0.68-0.86,1.38-1.28,2.08c-1.86,3.15-3.73,6.3-5.59,9.44c-3.27,5.51-6.27,11.31-10.1,16.44
		c-4.97,6.67-10.06,13.38-16.61,18.52c-2.65,2.07-7.45,6.3-10.2,8.25c-7.53,5.33-12.3,9.28-19.43,15.15
		c-17.6,14.5-37.61,25.82-58.23,35.56c-5.56,2.63-10.72,5.48-16.69,6.9c-12,2.86-23.5,7.49-34.75,12.53
		c-1.96,0.87-3.92,1.77-6.02,2.25c-1.9,0.44-3.86,0.53-5.79,0.92c-3.63,0.72-6.99,2.48-10.6,3.3c-2.4,0.54-4.9,0.64-7.29,1.24
		c-1.79,0.45-8.43,1.51-10.28,1.51c-5.75,0-6.76,1.63-12.69,1.39c-16.07,2.06-24.59,5.77-36.77,4.36c-3.35-0.39-5.75,0-9.2,0
		c-2.9,0-17.8,1.15-20.7,1.15c-12.65,0-19.36-1.99-31.06-1.15c-1.32,0.09-2.53,0.23-3.63,0.4c-17.46-2.85-34.68-7.34-51.34-13.23
		c-15.67-5.53-31.15-12.31-45.58-20.68c12.62,0.66,28.52,8.43,40.05,8.93c19.98,0.85,39.97-2.58,59.52-6.26
		c58.84-11.06,96.19-13.24,155.03-24.3c12.26-2.31,46.17-13.57,57.46-18.9c13.56-6.41,24.82-16.77,35.4-27.4
		c47.4-47.56,86.29-103.59,114.25-164.63c1.86-4.07,3.68-8.18,5.42-12.33c0.26-0.03,0.53-0.07,0.79-0.09
		c5.5-0.49,10.43,0.61,15.69,2.46c0.98,0.35,1.94,0.71,2.91,1.1c0.06,0.02,0.09,0.03,0.13,0.05c0.25,0.12,0.49,0.22,0.75,0.33
		c0.56,0.25,1.13,0.51,1.69,0.78c1.93,0.92,3.81,1.94,5.64,3.06c1.89,1.14,3.73,2.38,5.5,3.69c0.03,0.03,0.25,0.2,0.39,0.3
		c0.13,0.1,0.33,0.26,0.37,0.3c0.18,0.15,0.38,0.3,0.56,0.46c0.1,1.68,0.37,3.31,1.02,4.85c0.93,2.19,2.54,4.01,4.03,5.87
		C726.07,397.58,731.75,414.86,730.41,431.8z"/>
	<path class="st7" d="M340.02,548.3c-3.06-1.43-6.19-2.88-9.54-3.26c-2.8-0.32-5.61,0.13-8.4,0.51c-9.83,1.34-19.79,1.92-29.69,1.25
		c-8.09-0.55-16.14-1.93-24.25-1.85c-2.73,0.03-5.51,0.23-8.07,1.18c-2.72,1-5.07,2.78-7.38,4.53c1.86,2.02,4.08,3.84,6.46,5.21
		c4.93,2.85,11.04,2.37,16.55,3.79c2.69,0.69,5.24,1.83,7.9,2.63c4.55,1.36,9.33,1.66,14.07,1.96c7.61,0.48,15.25,0.96,22.86,0.37
		c4.34-0.34,8.73-1.05,12.65-2.95c3.92-1.91,7.34-5.15,8.67-9.3c0.26-0.81,0.44-1.69,0.25-2.52
		C341.88,549,340.79,548.66,340.02,548.3z"/>
	<path class="st7" d="M239.2,301.96l-1.33,2.56c15.9,19.58,25.44,44.53,25.44,71.72c0,62.89-50.98,113.87-113.87,113.87
		c-2.67,0-5.32-0.1-7.95-0.28l-11.6,8.34c15.05,7.33,36.19,17.25,54.06,17.25c62.89,0,113.87-50.98,113.87-113.87
		C297.81,358.71,274.16,321.4,239.2,301.96z"/>
	<path class="st7" d="M533.65,301.96l-1.33,2.56c15.9,19.58,25.44,44.53,25.44,71.72c0,62.89-50.98,113.87-113.87,113.87
		c-2.67,0-5.32-0.1-7.95-0.28l-11.6,4.89c15.05,7.33,36.19,20.7,54.06,20.7c62.89,0,113.87-50.98,113.87-113.87
		C592.26,358.71,568.61,321.4,533.65,301.96z"/>
	<path class="st7" d="M669.5,154.74c-0.25,2.63-0.61,5.22-1.07,7.76c-1.63,9.13-4.46,18.6-8.05,26.82
		c-1.83,4.2-3.86,8.19-6.27,11.92c-22.65-43.45-46.61-87.01-82.01-120.74c-4.54-4.34-9.25-8.48-14.06-12.51
		c6.31,2.28,12.51,4.81,18.55,7.64c19.91,9.33,37.57,21.36,52.07,37.76c7.57,8.55,14.07,18.39,18.91,29.27
		c0.94,2.13,4.05,2.63,5.9,1.55c0.46-0.28,0.83-0.62,1.13-0.99c2.43-1.6,4.62-3.47,6.53-5.58c3.16,2.73,5.41,4.97,5.89,6.25
		C668.63,148.12,669.3,151.67,669.5,154.74z"/>
	<path class="st7" d="M714.19,337.13c-0.02,10.57-2.55,17.6-3.51,26.04c-7.46-5.06-16.21-8.99-25.07-10.32
		c-2.06-0.31-4.12-0.44-6.17-0.41c5.81-15.47,9.97-31.47,10.17-47.91c0.26-20.82-5.8-40.79-14.11-60.05c1.35,0.2,2.68,0.33,4.03,0.4
		c0.17,0.05,0.36,0.08,0.52,0.14c0.32,0.09,0.63,0.23,0.94,0.32c0.05,0.01,0.05,0.01,0.08,0.01c0.05,0.03,0.09,0.06,0.17,0.09
		c1.14,0.55,2.23,1.21,3.25,1.94c0.09,0.06,0.47,0.37,0.47,0.37c0.14,0.1,0.28,0.22,0.41,0.33c0.51,0.44,1.01,0.9,1.5,1.37
		c1.01,0.98,1.97,2,2.9,3.06c1.84,2.08,3.59,4.24,5.52,6.25c1.39,1.44,2.82,2.83,4.47,3.84c0.86,3.85,3.26,7.68,4.82,11.44
		c4.99,12.03,4.98,29.56,7.3,42.37C713.19,323.66,714.19,331.16,714.19,337.13z"/>
	<path class="st7" d="M721.01,218.68c-2.25,11.97-8.97,22.68-16.93,31.92c-0.72,0.85-1.48,1.7-2.15,2.6
		c-0.7-0.69-1.37-1.41-2.02-2.14c-1.85-2.07-3.6-4.24-5.51-6.26c-0.7-0.75-1.44-1.46-2.21-2.16c4.87-2.25,8.97-6.06,11.92-10.54
		c4.64-7.04,6.05-15.9,5.41-24.17c-0.17-2.24-1.86-4.43-4.31-4.31c-2.19,0.09-4.5,1.9-4.31,4.31c0.13,1.67,0.18,3.35,0.14,5.03
		c-0.06,1.92-0.18,3.21-0.49,4.85c-0.62,3.3-1.56,6.1-3.17,8.82c-0.37,0.62-0.76,1.24-1.18,1.84c-0.06,0.07-0.29,0.39-0.37,0.49
		c-0.18,0.23-0.38,0.47-0.59,0.7c-0.95,1.1-2.01,2.14-3.17,3.06c-0.14,0.09-0.66,0.46-0.66,0.47c-0.24,0.16-0.48,0.32-0.74,0.47
		c-0.61,0.39-1.23,0.74-1.87,1.06c0,0-0.46,0.22-0.69,0.31c-0.21,0.08-0.61,0.23-0.69,0.26c-0.89,0.31-1.79,0.56-2.71,0.74
		c-1.22,0.24-2.45,0.35-3.68,0.35c-0.21-0.05-0.39-0.1-0.6-0.14c-0.62-0.11-1.25-0.1-1.87,0.01c-2.44-0.24-4.89-0.78-7.36-1.35
		c-3.86-8.24-8.04-16.34-12.19-24.34c-0.13-0.24-0.25-0.48-0.38-0.72c3.08-4.09,5.69-8.55,7.89-13.22
		c3.17-6.72,5.8-13.76,7.79-20.96c1.55,1.02,3.53,2.07,6.05,3.17c6.31,2.78,13.14,4.46,19.08,7.95c5.61,3.29,13.74,7.8,18.47,12.02
		C722.91,203.33,722.31,211.8,721.01,218.68z"/>
	<path class="st7" d="M571.99,264.37c0.53,0.06,1.06,0.12,1.58,0.03c0.71-0.13,1.33-0.52,1.95-0.88c2.13-1.25,4.46-2.19,6.44-3.66
		c1.96-1.46,3.66-3.47,6.04-4.02c0.34-0.08,0.69-0.12,1.03-0.04c0.63,0.16,1.06,0.73,1.46,1.24c2.43,3.08,5.91,5.32,9.72,6.27
		c1.24,0.31,2.54,0.49,3.63,1.15c1.56,0.94,2.44,2.68,3.23,4.32c2.01,4.15,4.07,8.62,3.42,13.19c-2.39-1.16-4.54-2.83-6.24-4.86
		c-0.82-0.98-1.54-2.04-2.47-2.93c-0.78-0.75-1.69-1.35-2.59-1.95c-3.95-2.62-8.01-5.29-12.63-6.37c-4.38-1.02-8.94-0.54-13.43-0.53
		c-1.59,0-5.51,0.16-6.32-1.51C568.51,263.82,570.29,264.17,571.99,264.37z"/>
	<path class="st7" d="M148.67,265.8c8.79,3.89,18.26,6.25,27.84,6.92c11.65,0.82,23.89,1.54,35.52,2.34
		c11.39,0.78,22.79,0.06,34.1-1.52c2.26-0.32,4.56-0.45,6.82-0.81c2.35-0.37,4.64-0.92,6.94-1.46c4.08-0.96,10.25-3.67,13.72-6.04
		c4.57-3.12,9.42-6.45,13.51-10.13c3.42-3.08,5.63-7.51,9.94-9.55c1.6-0.76,3.37-1.07,5.11-1.38c2.5-0.44,5.01-0.88,7.54-1.01
		c2.64-0.13,3.87-0.04,6.5-0.33c2.37-0.26,6.09-0.82,8.38-1.48c2.43-0.7,4.93-1.38,7.38-2.07c0.94-0.27,1.91-0.42,2.89-0.43
		c1.26-0.01,2.52-0.14,3.77-0.26c3.79-0.38,7.59-0.77,11.38-1.15c2.76-0.28,5.57-0.57,8.11-1.67c2.24-0.96,4.17-2.5,6.24-3.78
		c4.24-2.63,9.19-4.21,14.19-4.17c8.43,0.07,16.52,4.65,24.91,3.76c2.7-0.29,5.3-1.14,7.97-1.64c3.81-0.72,7.71-0.72,11.58-0.71
		c4.18,0,8.37,0.01,12.55,0.01c4.03,0,6.42,1.92,9.71,4.05c2.44,1.58,4.89,3.17,7.48,4.51c4.04,2.08,8.39,3.52,12.39,5.67
		c3.45,1.86,6.62,4.24,10.23,5.74c2.97,1.24,6.16,1.84,9.33,2.44c12.34,2.34,24.76,4.68,37.32,4.91c2.2,0.04,4.45,0.02,6.5,0.8
		c1.36,0.51,2.56,1.34,3.83,2.04c4.37,2.4,9.6,3.18,14.48,2.16c-3.86-3.28-7.68-6.55-11.54-9.82c-1.26-1.07-2.54-2.15-4.01-2.91
		c-3.55-1.83-7.82-1.58-11.72-0.69c-3.9,0.89-7.66,2.37-11.63,2.88c-6.49,0.83-13.04-1-19.12-3.43c-2.71-1.08-5.37-2.29-7.9-3.75
		c-2.21-1.28-4.31-2.75-6.27-4.39c-1.62-1.36-3.2-2.86-5.18-3.6c-3.6-1.34-7.73,0.13-11.44-0.89c-5.4-1.49-10.38-3.28-15.65-5.19
		c-2.36-0.85-4.72-1.71-6.98-2.8c-2.44-1.17-4.77-2.61-7.29-3.61c-3.75-1.48-7.81-1.93-11.82-2.37c-2.91-0.32-5.91-0.63-8.71,0.21
		c-2.06,0.61-3.89,1.82-5.9,2.57c-3.75,1.4-7.88,1.15-11.88,0.97c-11.47-0.51-23.14-0.28-34.18,2.89
		c-6.34,1.82-12.61,4.63-19.21,4.35c-12.64,2.88-26.71-2.54-38.53,2.78c-13.19,5.94-19.05,22.73-32.46,28.15
		c-4.24,1.71-8.87,2.11-13.43,2.49c-3.49,0.29-6.99,0.59-10.48,0.88c-7.2,0.6-14.52,1.2-21.59-0.3c-4.59,0.98-9.49,1.19-13.96-0.24
		c-1.17-0.37-2.31-0.83-3.5-1.13c-1.79-0.46-3.65-0.56-5.49-0.67c-4.2-0.24-8.41-0.48-12.61-0.73c-1.67-0.1-3.36-0.2-4.93-0.77
		c-1.73-0.63-3.22-1.8-4.95-2.41c-2.91-1.03-6.13-0.37-9.19-0.79c-1.91-0.26-3.77-0.96-5.69-0.97c-2.31-0.02-4.54,0.95-6.4,2.33
		C151.33,261.95,150.14,264.02,148.67,265.8z"/>
	<path class="st8" d="M625.83,269.22c1.71,4.79,2.46,9.86,3.19,14.89c2.9,19.93,5.69,40.94-1.69,59.68
		c-1.63,4.14-3.74,8.08-5.5,12.17c-2.72,6.32-4.62,12.95-6.95,19.42c-1.36,3.75-3.72,8.09-7.72,8.15c-2.08,0.03-3.97-1.19-5.56-2.55
		c-0.88-0.75-1.76-1.66-1.9-2.81c-0.09-0.72,0.14-1.45,0.37-2.14c1.71-5.08,4.01-9.97,6.84-14.53c1.82-2.93,3.87-5.78,4.9-9.07
		c0.58-1.86,0.81-3.81,1.22-5.71c1.19-5.51,3.83-10.62,4.99-16.13c1.02-4.87,0.84-9.9,0.66-14.88c-0.33-9.05-0.69-18.27-3.71-26.81
		c-1.02-2.88-2.33-5.65-3.43-8.5c-1.65-4.27-2.82-8.72-3.5-13.25c-0.29-1.95-0.48-4.03,0.34-5.83c1.37-3.05,6.58-5.94,9.54-3.96
		C621.75,259.92,624.33,265.03,625.83,269.22z"/>
	<path class="st8" d="M64.8,271.01c-12-6.6-22.12-16.58-28.88-28.49c-0.93-1.63-1.8-3.31-2.34-5.1c-0.88-2.94-0.86-6.06-1.23-9.1
		c-1.08-8.73-5.65-16.98-12.49-22.52c-1.34-1.09-2.91-2.12-4.64-2.05c-2.6,0.1-4.51,2.77-4.71,5.37c-0.2,2.6,0.87,5.11,1.91,7.5
		c4.76,10.93,9.51,21.86,14.27,32.78c2.59,5.95,5.22,11.97,9.2,17.1c2.69,3.47,5.95,6.46,9.18,9.43c2.1,1.93,4.21,3.86,6.47,5.61
		c9.33,7.21,20.84,10.95,32.23,14.01c3.16,0.85,6.37,1.66,9.64,1.73c4.18,0.08,8.28-1.08,12.43-1.58c2.66-0.33,5.44-0.41,7.82-1.64
		c2.38-1.23,4.22-4.07,3.27-6.57c-1.23-3.25-5.34-3.48-8.26-3.56c-3.09-0.09-5.87-0.38-8.88-1.06c-7.77-1.77-15.53-3.69-23.02-6.45
		C72.66,274.89,68.64,273.12,64.8,271.01z"/>
	<path class="st8" d="M56.01,221.34c-2.44-7.86-4.75-15.76-6.92-23.69c-2.1-7.67-4.05-15.99-1.15-23.39
		c0.65-1.65,1.52-3.2,2.39-4.75c3-5.33,6-10.65,9-15.98c0.9-1.6,1.81-3.22,2.24-5.01c0.81-3.37-0.3-7.14-2.81-9.54
		c-1.15-1.09-2.73-1.94-4.28-1.6c-1.66,0.36-2.74,1.91-3.66,3.35c-4.51,7.06-9.11,14.35-10.6,22.59c-0.48,2.66-0.62,5.37-0.7,8.07
		c-0.14,4.82-0.06,9.64,0.02,14.46c0.14,8.78,0.42,18.03,5.03,25.51c1.98,3.22,4.7,5.98,6.43,9.35c1.35,2.64,2.03,5.53,2.78,8.37
		c0.37,1.38,1.25,6.96,2.94,7.26C61.25,237.18,56.53,223,56.01,221.34z"/>
	<path class="st8" d="M111.29,74.63c-0.99-2.71-2.06-5.41-2.58-8.25c-1.08-5.92,0.32-12,0.19-18.02c-0.03-1.36-0.14-2.74-0.68-3.99
		c-1.11-2.56-3.75-4.03-5.73-6c-0.79-0.79-1.58-1.73-2.69-1.89c-1.91-0.27-3.2,1.85-3.93,3.64c-2.3,5.58-4.62,11.78-2.69,17.5
		c0.89,2.65,2.63,4.91,4.1,7.28c5.7,9.22,7.61,20.49,13.9,29.31c0.86,1.2,3.32,4.77,5.12,4.4c2.35-0.48,0.38-5.31,0.04-6.81
		C115.02,85.98,113.33,80.24,111.29,74.63z"/>
	<path class="st8" d="M306.66,176.32c2.46,2.73,4.94,5.46,7.8,7.76c5.18,4.16,10.04,7.85,15.55,11.57c3.25,2.2,7.12,4.68,10.35,6.9
		c6.48,4.46,14.39,6.39,21.7,9.29c9.35,3.7,19.16,7.48,29.16,6.39c4.63-0.5,9.1-2.04,13.72-2.63c4.62-0.59,9.72-0.06,13.22,3.01
		c-1.53,4.06-6.36,5.67-10.64,6.34c-7.87,1.23-15.88,1.03-23.84,0.83c-3.44-0.09-6.92-0.18-10.23-1.12
		c-4.46-1.26-8.5-4.01-13.11-4.53c-3.51-0.39-7.26,0.53-10.46-0.96c-1.63-0.76-2.94-2.07-4.45-3.05c-3.74-2.43-8.52-2.71-12.44-4.86
		c-2.79-1.53-4.99-3.94-7.14-6.29c-6-6.6-11.99-13.19-17.99-19.79c-3.01-3.31-6.04-6.64-8.59-10.33c-0.73-1.05-5.74-10.14-2.38-9.3
		c1.39,0.35,3.77,4.13,4.76,5.24C303.34,172.65,305,174.49,306.66,176.32z"/>
	<path class="st8" d="M232.92,209.92c3.22,1.77,6.45,3.55,9.91,4.79c6.26,2.24,12.9,3.39,19.32,5.11c3.79,1.01,7.57,1.73,11.36,2.78
		c7.58,2.1,15.52,2.46,23.38,2.81c10.05,0.45,21.73,3.3,30.82-0.99c4.21-1.99,14.23-2.54,18.4-4.6s6.04,1.69,10.35,3.45
		c-0.12,4.33-5.37,2.57-9.2,4.6c-7.03,3.73-17.8,1.25-25.39,3.65c-3.28,1.04-6.6,2.09-10.03,2.28c-4.63,0.27-9.35-1.02-13.87,0
		c-3.44,0.78-6.69,2.87-10.2,2.51c-1.79-0.18-3.45-1-5.2-1.43c-4.33-1.08-8.94,0.22-13.34-0.53c-3.14-0.54-6-2.09-8.8-3.62
		c-7.82-4.28-15.65-8.55-23.47-12.83c-3.93-2.15-7.88-4.31-11.49-6.96c-1.03-0.76-8.74-7.71-5.28-8.01c1.43-0.13,2.7-1.09,4-0.37
		C226.37,203.76,230.75,208.72,232.92,209.92z"/>
	<path class="st8" d="M255.81,265.74c-3.5,1.37-7.17,2.5-10.93,2.41c-2.68-0.06-5.31-0.75-7.98-0.96
		c-5.49-0.42-11.13,1.19-16.47-0.17c-2.36-0.6-4.54-1.76-6.9-2.36c-3.73-0.96-7.65-0.49-11.5-0.39c-4.25,0.1-8.5-0.27-12.72-0.79
		c-9.43-1.15-18.95-3.05-27.24-7.69c-10.3-5.77-18.17-15.74-21.38-27.11c2.77,3.02,5.68,5.92,8.71,8.69
		c9.99,9.12,21.94,17.01,35.4,18.35c4.24,0.42,12.12,2.06,16.39,2.05c15.57-0.05,27.67,1.1,43.01-1.59
		c4.81-0.84,9.51-2.24,14.19-3.64c4.4-1.31,8.87-2.65,12.75-5.11c3.22-2.03,5.92-4.77,8.99-7.02c2.02-1.48,6.94-5.04,9.07-1.75
		c1.58,2.46-3.2,6.21-4.75,7.84c-5.16,5.39-11.07,10.06-17.5,13.83C263.38,262.42,259.66,264.24,255.81,265.74z"/>
	<path class="st9" d="M338.08,541.89c-11.27-0.15-22.54-0.29-33.82-0.44c-10.98-0.14-22-0.53-32.96,0.17
		c-6.37,0.41-12.75,1.22-18.97,2.67c-2.27,0.53-3.61,3.12-3.01,5.31c0.64,2.33,3.03,3.54,5.31,3.01
		c10.28-2.39,20.82-2.76,31.47-2.73c10.98,0.03,21.96,0.26,32.95,0.4c6.35,0.08,12.69,0.16,19.04,0.25c2.26,0.03,4.42-2,4.31-4.31
		C342.29,543.84,340.5,541.92,338.08,541.89z"/>
	<path class="st9" d="M743.08,412.67c-1.53-9.33-5.11-18.4-10.12-26.41c-2.8-4.48-6.06-8.62-9.69-12.42
		c1.83-7.27,3.11-14.69,3.62-22.18c0.52-7.81,0.12-15.64-0.55-23.43c-1.31-15.22-3.66-30.37-7.07-45.26
		c-1.75-7.64-3.5-15.51-6.28-22.87c0.88-0.88,1.7-1.8,2.48-2.62c2.74-2.9,5.34-5.93,7.81-9.07c5.01-6.38,9.72-13.11,12.22-20.91
		c4.71-14.68,0.85-31.16-7.98-43.49c-4.91-6.85-11.01-12.58-17.94-17.36c-3.66-2.53-7.97,2.35-5.9,5.9c0.2,0.34,0.4,0.68,0.59,1.02
		c-8.34-5.29-17.41-9.41-26.93-12.18c1.21-7.92,1.65-15.95,1.17-23.93c-0.34-5.66-1.07-11.36-2.35-16.88
		c-1.22-5.26-3.15-10.53-6.46-14.86c-1.3-1.71-3.26-2.7-5.39-1.76c-2.08,0.91-2.88,2.91-2.5,5.09c0.01,0.04,0.11,0.66,0.13,0.77
		c0.03,0.25,0.06,0.51,0.08,0.76c0.07,0.76,0.1,1.52,0.11,2.28c0.01,1.3-0.06,2.62-0.22,3.91c-0.03,0.19-0.11,0.7-0.12,0.73
		c-0.06,0.34-0.13,0.68-0.2,1.02c-0.16,0.75-0.35,1.49-0.56,2.22c-0.19,0.67-0.41,1.33-0.64,1.98c-0.12,0.33-0.25,0.66-0.38,0.99
		c-0.04,0.1-0.15,0.36-0.21,0.49c-0.61,1.33-1.3,2.61-2.08,3.85c-0.37,0.59-0.77,1.15-1.17,1.73c-0.08,0.11-0.12,0.18-0.16,0.24
		c-0.05,0.05-0.09,0.11-0.17,0.21c-0.22,0.27-0.44,0.54-0.67,0.8c-0.84,0.97-1.75,1.89-2.7,2.75
		c-9.09-18.15-23.01-33.49-39.06-45.82c-18.92-14.54-40.94-24.48-63.57-31.72c-13.31-4.25-26.91-7.57-40.57-10.47
		c-2.2-0.47-4.77,0.65-5.31,3.01c-0.53,2.33,0.7,4.6,3.01,5.31c10.59,3.22,20.53,8.5,29.18,15.45c-15.48,1.96-31.32-1.07-46.16-6.34
		c-8.85-3.14-17.24-7.03-25.67-11.24c-7.84-3.92-15.77-7.83-23.32-12.3c-1.91-1.14-3.8-2.33-5.61-3.61c-0.42-0.3-0.84-0.6-1.25-0.9
		c-0.12-0.09-0.25-0.18-0.37-0.28c-0.01-0.01-0.44-0.34-0.5-0.39c-0.85-0.68-1.68-1.39-2.49-2.12c-1.9-1.74-3.37-3.29-4.66-5.03
		c-0.63-1.2-1.26-2.41-1.86-3.63c-0.27-0.55-0.68-0.99-1.17-1.33c-1.18-1.81-3.88-2.3-5.69-1.24c-2.12,1.24-2.6,3.81-1.55,5.9
		c0.79,1.58,1.73,3.07,2.74,4.5c5.56,10.55,12.5,20.37,20.58,29.15c-14.5-4.36-29.13-8.24-43.86-11.81
		c-9.86-2.39-19.73-4.88-29.23-8.49c-8.87-3.37-17.41-8.14-25.38-13.54c-9.06-6.14-17.21-12.86-25.69-19.86
		c-1.66-1.37-3.88-1.76-5.66-0.34c-1.61,1.28-2.3,3.73-1.11,5.56c8.56,13.22,17.11,26.44,25.67,39.66
		c-27.99-8.51-57.49-12.19-86.7-10.82c-8.74,0.41-17.44,1.32-26.09,2.6c-0.23-0.04-0.45-0.08-0.68-0.12
		c-2.22-0.35-4.75,0.57-5.31,3.01c-0.38,1.65,0.27,3.79,1.75,4.78c1.05,0.91,2.54,1.23,4.03,1c10.95,2,21.35,5.43,31.19,10.28
		c-3.68,0.25-7.36,0.42-11.04,0.46c-8.1,0.08-16.68-0.39-24.3-1.57c-8.1-1.26-16.1-3.28-23.77-6.2
		c-7.31-2.78-14.65-6.77-21.47-11.08c-7.9-4.99-15.4-10.57-22.89-16.15c-1.51-1.12-3.98-0.57-5.23,0.67
		c-1.39,1.39-1.58,3.53-0.67,5.23c7.52,14.08,17.86,26.73,30.2,36.85c-2.09-0.36-4.19-0.76-6.32-1.21
		c-7.02-1.48-14.03-3.18-20.95-5.12c-6.41-1.8-12.47-3.84-18.14-6.72c-6.05-3.08-10.89-6.66-15.55-11.51
		c-5.32-5.55-9.37-11.43-13.78-17.79c-2.13-3.07-6.69-2.63-7.88,1.03c-3.22,9.87,0,20.88,2.68,30.51
		c2.75,9.84,6.34,19.44,10.63,28.72c0.34,0.74,0.7,1.48,1.05,2.21c-1.87-1.48-3.86-2.77-6.19-3.61c-2.04-0.73-4.94,0.84-5.31,3.01
		c-3.65,21.81-9.77,43.19-18.25,63.62c-0.85,2.05-1.78,4.16-2.72,6.28c-3.59-11.02-8.65-21.57-13.68-31.99
		c-1.01-2.1-4.01-2.66-5.9-1.55c-0.96,0.56-1.55,1.39-1.85,2.31c-0.25,0.53-0.38,1.12-0.34,1.75c0.12,1.79-0.12,2.89-0.91,4.71
		c-0.51,1.17-1.57,3.04-2.34,4.45c-1.8,3.34-3.5,6.73-5.03,10.2c-3.09,6.99-5.66,14.24-6.76,21.84c-1.16,8.05-0.71,15.96,1.15,23.88
		c1.79,7.66,4.55,15.12,7.41,22.43c0.97,2.49,1.99,4.97,3.05,7.42c-11.92-9.66-23.16-20.27-33.52-31.65
		c-1.78-1.96-5.57-1.56-6.77,0.87c-3.1,6.29-0.12,13.21,1.72,19.45c1.76,5.96,3.59,11.91,5.69,17.76
		c4.06,11.34,9.05,22.48,16.08,32.32c6.55,9.17,14.66,17.34,24.51,22.93c10.99,6.24,23.41,8.86,35.82,10.44
		c0.06,0.01,0.11,0.01,0.17,0.02c-5.1,2.48-9.88,5.25-14.27,8.35c-23.64,16.67-36.13,42.05-36.13,73.41
		c0,54.03,35.83,99.85,84.97,114.96c10.71,37.41,24.52,77.06,55.32,102.77c16.43,13.71,35.94,23.53,55.59,31.73
		c19.95,8.32,40.8,14.49,62.06,18.36c44.09,8.03,88.96,5.42,132.74-3.29c22.38-4.46,44.43-10.53,66.07-17.75
		c19.38-6.47,37.74-14.53,55.06-25.39c9.4-5.9,18.74-11.91,27.6-18.59c8.74-6.59,17.17-13.63,25.73-20.46
		c15.93-12.71,31.41-27.2,38.33-46.92c1.3-3.7,2.13-7.5,2.65-11.37c3.99,0.68,8.05,1.06,12.1,1.19c12.17,0.37,24.79-0.63,35.78-6.25
		c10.18-5.2,18.96-13.32,26.98-21.36c8.17-8.19,16.68-17.14,19.8-28.59c1.67-6.13,2.19-12.65,2.5-18.97
		C744.25,423.97,744,418.3,743.08,412.67z M714.64,303.94c2.39,14.3,4.24,29.13,3.81,43.78c-0.19,6.61-1.08,13-2.46,19.4
		c-0.95-0.77-1.92-1.52-2.91-2.25c-7.96-5.87-17.64-10.54-27.48-12.01c-7.91-1.19-15.82,0.25-23.24,3.04
		c-0.09-0.07-0.18-0.14-0.28-0.2c-11.63-6.78-24.67-10.39-37.26-14.88c-1.6-0.57-3.14-1.13-4.65-1.72c0.18-0.52,0.37-1.04,0.53-1.56
		c1.62-5.1,2.58-10.38,3.03-15.71c0.89-10.42-0.44-21.01-2.97-31.12c-1.39-5.59-3.18-11.07-5.18-16.47
		c-0.99-2.68-2.03-5.35-3.13-7.99c-0.18-0.43-0.36-0.85-0.55-1.27c2.19-1.15,4.27-2.55,6.21-3.88c7.15-4.91,14.04-10.22,20.61-15.89
		c0.01,0,0.01-0.01,0.02-0.01c0.19-0.1,1.05-0.48,1.1-0.51c1.01-0.39,2.03-0.73,3.07-1.02c1.18-0.33,2.37-0.6,3.58-0.84
		c0.63-0.12,1.26-0.24,1.89-0.34c0.38-0.06,0.77-0.12,1.15-0.18c0.07-0.01,0.13-0.02,0.19-0.03c0.06-0.01,0.13-0.01,0.21-0.02
		c2.71-0.31,5.42-0.51,8.15-0.51c1.18,0,2.37,0.04,3.54,0.13c0.11,0.01,0.61,0.04,1,0.07c0.03,0.01,0.13,0.03,0.33,0.07
		c0.3,0.06,0.6,0.11,0.89,0.17c5.18,1.06,10.41,2.44,15.67,2.71c0.17,0.04,0.35,0.08,0.52,0.14c0.32,0.1,0.62,0.23,0.94,0.32
		c0.04,0.01,0.05,0.01,0.08,0.02c0.05,0.03,0.09,0.05,0.17,0.09c1.14,0.56,2.23,1.2,3.26,1.95c0.08,0.06,0.47,0.37,0.46,0.36
		c0.14,0.11,0.28,0.23,0.41,0.34c0.52,0.44,1.02,0.9,1.5,1.36c1.01,0.97,1.96,2.01,2.9,3.06c1.84,2.08,3.59,4.24,5.52,6.24
		c2.5,2.59,5.15,5.03,8.89,5.34c0.37,0.03,0.73-0.03,1.09-0.12c2.06,5.87,3.49,12.03,4.94,18.05
		C711.93,289.29,713.42,296.59,714.64,303.94z M568.11,335.84c-17.01-33.33-55.46-52.23-109.81-52.23
		c-34.48,0-63.78,7.81-84.73,22.59c-9.96,7.02-17.93,15.6-23.83,25.51c-13.8-5.59-27.96-10.31-42.38-14.06
		c-4.15-1.08-8.2-1.81-12.46-0.9c-3.5,0.75-6.95,2.39-10.01,4.2c-3.01,1.78-5.84,3.97-8.33,6.44c-1.19,1.18-2.49,2.47-3.28,3.96
		c-1.15,2.17-1.03,4.56-0.03,6.74c0.64,1.39,1.7,2.46,2.51,3.74c0,0,0.21,0.41,0.32,0.58c0.01,0.04,0.02,0.08,0.04,0.13
		c0,0.08,0.01,0.2,0.01,0.4c-0.05,0.96-0.09,1.21-0.33,2.28c-0.04,0.2-0.1,0.4-0.15,0.6c-14.09-39.5-54.56-62.19-114.11-62.19
		c-12.76,0-24.81,1.08-36,3.18c-0.04-0.3-0.1-0.6-0.2-0.89c1.49-0.47,2.95-1.04,4.36-1.75c1.84-0.93,3.48-2.14,5.16-3.32
		c1.79-1.26,3.75-2.16,5.58-3.33c3.84-2.46,7.29-5.74,10.75-8.69c2.96-2.53,5.85-5.12,8.62-7.85c3.81,2.49,7.98,4.45,12.37,5.68
		c6.58,1.84,13.52,2.13,20.3,2.59c13.86,0.95,27.73,1.84,41.63,1.77c12.87-0.06,26.57-0.01,37.71-7.34
		c5.11-3.36,9.53-7.62,13.87-11.89c2.12-2.09,4.24-4.18,6.45-6.18c1.07-0.97,2.16-1.91,3.29-2.82c-0.07,0.05,0.47-0.37,0.63-0.5
		c0.18-0.13,0.62-0.46,0.72-0.54c0.64-0.47,1.29-0.91,1.95-1.35c0.38-0.25,0.7-0.56,0.99-0.89c9.25-0.11,18.55-0.56,27.74-1.51
		c11.57-1.2,23.13-3.58,33.29-9.5c9.75,2.9,19.98,4.06,30.32,2.93c10.71-1.17,21.17-4,31.74-5.05c1.11,0.84,2.24,1.66,3.41,2.44
		c5.9,3.94,12.42,7.01,19.17,9.18c7.53,2.42,15.48,3.65,23.39,3.67c0.17,0,0.33-0.03,0.5-0.05c9.36,7.83,20.33,13.5,32.66,15.07
		c8.83,1.13,17.68-0.17,25.83-3.73c0.63-0.27,1.09-0.75,1.44-1.31c3.62,4.1,7.46,8.01,11.92,11.17c3.97,2.82,8.41,4.38,13.24,4.89
		c4.6,0.49,9.41,0.16,14-0.24c5.27-0.46,10.3-1.65,14.94-4.25c1.89-1.06,3.62-2.31,5.23-3.7c3.67,3.92,7.76,7.31,13.32,7.9
		c0.56,0.06,1.12,0.07,1.68,0.06c0.1,0.16,0.19,0.32,0.23,0.4c0.13,0.25,0.25,0.51,0.38,0.77c0,0,0.05,0.12,0.1,0.22
		c0.06,0.14,0.18,0.43,0.17,0.42c0.17,0.42,0.34,0.83,0.51,1.25c0.97,2.42,1.91,4.86,2.81,7.32c1.78,4.9,3.37,9.88,4.65,14.94
		c2.52,10,3.68,20.06,2.6,30.43c-0.44,4.21-1.47,8.38-2.79,12.51c-1.56-0.75-3.13-1.56-4.73-2.46c-3.24-1.82-6.08-3.68-9.97-3.6
		c-3.73,0.07-7.53,0.69-11.21,1.28C580.05,331.9,573.97,333.54,568.11,335.84z M568.72,379.6c0,61.23-49.81,111.04-111.04,111.04
		S346.64,440.83,346.64,379.6c0-28.64,10.84-50.81,32.23-65.89c19.4-13.68,46.86-20.91,79.43-20.91c32.45,0,59.69,7.22,78.78,20.89
		c10.74,7.69,18.75,17.25,24.03,28.6c0.07,0.56,0.24,1.1,0.52,1.56c0.13,0.23,0.29,0.42,0.44,0.61
		C566.48,354.79,568.72,366.51,568.72,379.6z M280.91,335.42c-0.04,0.07-0.09,0.12-0.16,0.1
		C280.78,335.52,280.83,335.49,280.91,335.42z M615.01,352.22c0.71-1.69,1.41-3.39,2.11-5.09c7.07,2.74,14.35,4.99,21.49,7.52
		c4.95,1.75,9.48,3.51,14.02,5.76c-0.18,0.1-0.37,0.2-0.55,0.3c-9.05,5.04-17.04,11.95-23.37,20.13c-0.79,1.03-1.56,2.07-2.31,3.13
		c-0.68,0.04-1.36,0.06-2.05,0.05c-0.52-0.01-1.04-0.03-1.55-0.06c-0.22-0.01-0.44-0.03-0.66-0.05c-0.06-0.01-0.56-0.06-0.77-0.08
		c-0.13-0.02-0.29-0.04-0.29-0.04c-0.29-0.05-0.58-0.1-0.88-0.15c-0.44-0.08-0.87-0.17-1.3-0.27c-1.08-0.25-2.15-0.55-3.2-0.91
		c-3.26-1.1-7.1-3.35-9.68-5.72c-0.45-0.41-0.87-0.85-1.28-1.3c0.13-0.29,0.25-0.59,0.39-0.87c1.17-2.42,2.3-4.85,3.4-7.3
		C610.77,362.29,612.91,357.26,615.01,352.22z M662.7,241.95c0.24,0.02,0.43,0.05,0.44,0.07
		C663.14,242.02,662.85,241.97,662.7,241.95z M705.73,255.07C705.88,254.97,706.06,254.87,705.73,255.07L705.73,255.07z
		 M712.25,190.33c1.73,1.56,4.39,1.71,6.1,0c0.69-0.69,1.09-1.63,1.2-2.61c3.48,4.64,6.22,9.81,7.78,15.43
		c1.71,6.13,2.1,12.69,0.75,18.73c-1.47,6.6-4.82,12.18-8.88,17.74c-2.27,3.11-4.7,6.08-7.32,9.02c-1.42,1.59-2.87,3.14-4.36,4.66
		c-0.59,0.61-1.18,1.25-1.84,1.79c-0.02,0.02-0.05,0.03-0.08,0.05c-0.04,0-0.06,0-0.1-0.01c-0.43-0.04-0.85,0.04-1.25,0.16
		c-0.09-0.06-0.16-0.1-0.17-0.09c-0.45-0.36-0.88-0.77-1.29-1.16c-1.01-0.95-1.96-1.96-2.88-2.99c-1.85-2.07-3.6-4.24-5.51-6.26
		c-0.7-0.74-1.44-1.46-2.21-2.16c4.87-2.26,8.97-6.06,11.92-10.53c4.63-7.04,6.04-15.89,5.4-24.17c-0.17-2.24-1.86-4.42-4.31-4.31
		c-2.19,0.1-4.5,1.9-4.31,4.31c0.13,1.67,0.19,3.35,0.14,5.03c-0.06,1.91-0.18,3.21-0.49,4.85c-0.63,3.3-1.57,6.1-3.17,8.82
		c-0.37,0.63-0.77,1.24-1.19,1.84c-0.05,0.08-0.29,0.39-0.36,0.5c-0.19,0.24-0.39,0.47-0.58,0.7c-0.96,1.11-2.02,2.15-3.17,3.06
		c-0.14,0.1-0.67,0.48-0.66,0.48c-0.24,0.16-0.48,0.32-0.73,0.48c-0.61,0.38-1.24,0.74-1.89,1.06c0.07-0.03-0.44,0.2-0.67,0.31
		c-0.24,0.09-0.76,0.29-0.69,0.27c-0.89,0.31-1.8,0.55-2.72,0.74c-1.22,0.24-2.45,0.34-3.68,0.34c-0.2-0.04-0.39-0.1-0.59-0.14
		c-0.62-0.11-1.26-0.1-1.88,0.01c-4.43-0.44-8.92-1.87-13.39-2.6c-4.55-0.74-9.2-0.68-13.77-0.2c2.59-2.6,5.13-5.25,7.6-7.97
		c1.57-1.72,1.7-4.4,0-6.1c-0.15-0.15-0.32-0.27-0.49-0.4c-0.15-0.24-0.32-0.45-0.51-0.64c-1.79-1.79-4.28-1.47-6.1,0
		c-1.43,1.15-3.07,2.25-4.82,3.25c0.81-0.63,1.62-1.28,2.41-1.95c7.4-6.27,12.93-14.27,17.06-23c4.02-8.51,7.15-17.52,9.24-26.75
		C689.21,173.95,701.83,180.97,712.25,190.33z M62.71,281.66c-9.22-4.52-16.4-10.93-22.86-19.11c-6.11-7.75-11.44-18.16-15.16-27.72
		c-2.38-6.12-4.42-12.37-6.33-18.66c-0.72-2.36-1.4-4.73-2.09-7.1c12.65,12.82,26.41,24.53,41.08,35c1.54,1.1,3.96,0.59,5.23-0.67
		c1.35-1.35,1.64-3.58,0.67-5.23c-3.79-6.47-7.06-13.36-9.79-20.18c-2.86-7.13-5.57-14.4-7.55-21.82
		c-1.93-7.24-2.77-14.25-1.81-21.79c0.78-6.21,3.21-13.77,5.8-19.65c1.67-3.79,3.53-7.48,5.51-11.11c0.23-0.42,0.46-0.85,0.69-1.28
		c4.7,10.14,8.9,20.43,11.25,31.5c0.75,3.53,6.26,4.31,7.88,1.03c10.01-20.23,17.77-41.58,22.93-63.56
		c0.99-4.22,1.88-8.46,2.68-12.71c1.16,1.03,2.3,2.09,3.5,3.09c3.68,3.05,7.52,4.95,12.39,4.12c2.8-0.48,3.86-4.12,2.58-6.34
		c-9.52-16.46-16.5-34.18-20.33-52.91c-0.25-1.24-0.48-2.49-0.64-3.74c6.32,8.27,13.39,15.81,22.67,21.05
		c12.56,7.08,27.06,10.39,41.01,13.5c8.78,1.96,17.72,3.48,26.74,3.63c4.4,0.07,5.71-5.83,2.18-8.04
		c-10.18-6.37-19.58-14.62-27.34-23.91c7.81,5.17,15.91,9.84,24.63,13.45c15.74,6.5,32.91,9.08,49.87,9.22
		c9.49,0.08,18.98-0.62,28.39-1.83c1.84-0.24,3.7-1.17,4.16-3.17c0.44-1.93-0.31-3.8-1.98-4.87c-7.55-4.85-15.63-8.87-24.03-12
		c24.23-1.43,48.85,0.7,72.37,6.29c8.95,2.13,17.77,4.75,26.43,7.84c3.53,1.26,6.85-3.28,4.87-6.34
		c-6.04-9.32-12.07-18.65-18.11-27.97c9,6.6,18.44,12.56,28.77,16.95c9.7,4.12,19.82,6.99,30.04,9.53
		c10.24,2.54,20.5,4.96,30.68,7.75c11.85,3.25,23.61,6.83,35.27,10.72c1.8,0.6,3.94-0.4,4.87-1.98c0.9-1.54,0.78-4.02-0.67-5.23
		c-6.57-5.44-12.5-11.37-17.8-17.78c5.14,2.85,10.43,5.46,15.65,8.11c17.72,9.02,36.23,17.35,56.09,20.06
		c11.38,1.55,22.89,1.38,34.07-1.43c3.15-0.79,4.19-4.97,1.9-7.21c-2.33-2.29-4.79-4.44-7.33-6.47c11.97,3.55,23.71,7.76,34.88,13
		c19.91,9.33,37.56,21.35,52.07,37.75c7.56,8.55,14.06,18.39,18.9,29.28c0.95,2.13,4.05,2.63,5.9,1.55
		c0.47-0.27,0.83-0.61,1.14-0.98c6.5-4.29,11.29-10.59,13.87-17.73c0.58,3.05,0.93,6.14,1.19,9.1c0.82,9.35,0.35,18.98-1.24,27.9
		c-1.63,9.14-4.46,18.6-8.05,26.82c-3.66,8.38-8.12,15.98-14.71,22.14c-3.58,3.35-7.06,5.84-11.3,8.53
		c-4.34,2.74-8.84,5.21-13.34,7.67c-1.67,0.91-2.48,3.07-1.98,4.87c0.53,1.91,2.25,3.04,4.16,3.17c4.97,0.34,9.9-0.13,14.66-1.29
		c-1.41,1.3-2.84,2.57-4.29,3.83c-0.14,0.09-0.28,0.16-0.42,0.25c-0.48,0.33-0.9,0.73-1.23,1.18c-0.66,0.56-1.3,1.14-1.96,1.7
		c-4.06,3.39-7.9,6.37-12.18,9.45c-2.16,1.55-4.33,3.08-6.55,4.54c-2.04,1.34-4.08,2.56-6.16,3.13c-2.11,0.58-3.79,0.29-5.6-0.8
		c-0.25-0.15-0.49-0.32-0.74-0.48c-0.11-0.07-0.17-0.11-0.24-0.15c-0.02-0.02-0.07-0.06-0.14-0.12c-0.53-0.43-1.04-0.89-1.53-1.35
		c-0.88-0.84-1.7-1.72-2.52-2.62c0.87-1.86-0.14-4.37-1.84-5.37c-2.19-1.28-4.52-0.34-5.9,1.55c-1.74,2.37-4.52,4.82-7.39,6.45
		c-0.78,0.44-1.58,0.85-2.39,1.22c-0.14,0.06-0.23,0.11-0.3,0.14c-0.07,0.02-0.17,0.06-0.32,0.11c-0.42,0.15-0.84,0.3-1.27,0.44
		c-1.98,0.63-4.07,1.04-5.95,1.22c-4.25,0.42-8.68,0.66-12.95,0.42c-3.94-0.22-7.09-1.43-10.48-3.84c-1.25-0.88-2.75-2.19-4.12-3.49
		c-1.62-1.53-3.16-3.15-4.65-4.81c-2.9-3.22-5.67-6.54-8.48-9.83c-6.01-7.04-12.01-14.09-17.98-21.16
		c-6.83-8.08-13.64-16.18-20.42-24.3c-1.49-1.79-4.56-1.54-6.1,0c-1.77,1.77-1.5,4.31,0,6.1c12.6,15.08,25.28,30.09,38.04,45.03
		c0.69,0.81,1.38,1.63,2.07,2.45c-0.14,0.05-0.28,0.09-0.42,0.15c-5.95,2.6-12.68,3.39-19.47,2.78c-6.15-0.55-12.79-2.79-18.35-5.8
		c-6.26-3.38-11.19-7.38-16.17-12.43c-5.33-5.41-10.25-11.26-15.13-17.08c-5.41-6.45-10.21-13.28-14.36-20.67
		c-1.14-2.03-3.92-2.71-5.9-1.55c-2.04,1.2-2.69,3.86-1.55,5.9c4.1,7.29,8.86,14.09,14.16,20.55c4.24,5.17,8.6,10.31,13.16,15.22
		c-9.66-1.29-18.97-4.62-27.41-9.89c-0.15-0.09-0.29-0.19-0.44-0.29l-6.47-4.71c-2.96-2.44-5.74-5.12-8.56-8.06
		c-5.31-5.56-10.45-11.29-15.66-16.94c-5.34-5.8-10.45-11.16-13.88-18.28c-1.01-2.1-4-2.66-5.9-1.55c-2.14,1.25-2.56,3.8-1.55,5.9
		c3.24,6.72,8.23,12.4,13.24,17.86c5.38,5.86,10.74,11.74,16.17,17.54c1.57,1.67,3.17,3.31,4.81,4.9c-6.4,1.05-12.75,2.4-19.16,3.38
		c-4.74,0.72-9.93,1.16-14.95,0.97c-4.92-0.19-8.84-0.8-13.72-2.05c-18.81-4.83-34.76-16.64-48.29-30.54
		c-8.03-8.25-15.3-17.2-22.43-26.22c-1.45-1.83-4.59-1.51-6.1,0c-1.81,1.81-1.45,4.27,0,6.1c12.93,16.36,26.49,32.55,43.76,44.53
		c5.18,3.6,10.67,6.73,16.39,9.29c-1.76,0.71-3.58,1.33-5.58,1.91c-2.37,0.69-4.77,1.25-7.18,1.72c-1.14,0.22-2.27,0.42-3.42,0.6
		c-1.17,0.19-2.24,0.34-3.04,0.44c-10,1.24-20.16,1.67-30.22,1.85c-10.51,0.19-21.13-0.19-31.3-2.16c-8.96-1.73-17-4.41-24.65-8.63
		c-4.38-2.42-8.06-4.96-11.48-8c-3.74-3.33-6.64-6.66-9.14-10.49c-1.27-1.95-3.82-2.77-5.9-1.55c-1.94,1.13-2.83,3.94-1.55,5.9
		c10.38,15.86,27.72,25.75,45.87,30.1c7.96,1.91,16.12,2.88,24.3,3.27c-5.22,4.73-10.01,9.96-15.49,14.42
		c-0.22,0.18-0.44,0.36-0.66,0.53c-0.07,0.06-0.1,0.08-0.15,0.12c-0.03,0.02-0.07,0.05-0.15,0.11c-0.51,0.38-1.02,0.76-1.55,1.12
		c-1.04,0.72-2.12,1.4-3.22,2.03c-0.49,0.28-0.99,0.55-1.5,0.8c-0.25,0.13-0.51,0.25-0.76,0.37c0.07-0.03-0.51,0.23-0.71,0.32
		c-0.16,0.07-0.38,0.16-0.42,0.17c-0.4,0.15-0.79,0.3-1.19,0.44c-0.75,0.26-1.51,0.49-2.27,0.69c-5.97,1.61-12.13,1.69-18.45,1.85
		c-13.51,0.33-27.02-0.35-40.5-1.23c-6.22-0.41-13.01-0.61-18.88-1.49c-5.9-0.89-10.37-2.38-15.2-5.35
		c-0.89-0.55-1.76-1.14-2.61-1.76c-0.07-0.08-0.13-0.18-0.21-0.26c-0.37-0.37-0.8-0.64-1.27-0.85c-7.6-5.93-13.81-14.27-19.44-22.01
		c-1.37-1.88-3.75-2.81-5.9-1.55c-1.86,1.09-2.92,4.01-1.55,5.9c5.66,7.79,11.48,15.52,18.66,21.92c-2.79,2.7-5.69,5.27-8.65,7.78
		c-2.14,1.82-4.3,3.63-6.48,5.4c-1.65,1.34-4.03,2.44-6.07,3.75c-2.15,1.38-4.1,3.01-6.39,4.16c-0.96,0.48-1.83,0.81-3.15,1.19
		c-1.32,0.38-2.67,0.66-4.03,0.91c-2.51,0.46-4.75,0.92-6.96,0.48c-2.98-0.6-5.95-0.94-8.99-1.11c-0.36-0.02-0.71,0.04-1.06,0.12
		c-0.77-0.14-1.55-0.28-2.32-0.44c-0.57-0.18-1.15-0.21-1.72-0.08c-0.57,0.03-1.11,0.2-1.6,0.51c-0.5,0.27-0.91,0.64-1.21,1.11
		c-0.38,0.42-0.64,0.91-0.77,1.47c-0.25,1.1-0.2,2.34,0.43,3.32c0.59,0.91,1.48,1.76,2.58,1.98c1.75,0.36,3.51,0.66,5.28,0.91
		c0.57,0.18,1.15,0.21,1.72,0.08c0.33-0.02,0.65-0.09,0.96-0.21c1.32,0.11,2.56,0.26,3.9,0.53c1.71,0.36,3.34,0.54,5,0.52
		c-0.2,0.1-0.41,0.19-0.62,0.29c-0.05,0.02-0.09,0.03-0.16,0.05c-0.51,0.17-1.01,0.36-1.53,0.52c-1.11,0.34-2.25,0.59-3.39,0.79
		c-0.05,0.01-0.25,0.04-0.41,0.07c-0.16,0.02-0.44,0.06-0.51,0.07c-0.56,0.06-1.12,0.11-1.68,0.15c-1.2,0.08-2.41,0.11-3.62,0.1
		c-2.41-0.02-4.81-0.19-7.2-0.44C83.9,288.49,72.25,286.33,62.71,281.66z M112.96,288.24C113.06,288.21,113.11,288.19,112.96,288.24
		L112.96,288.24z M49.89,379.6c0-28.64,10.84-50.81,32.23-65.89c19.4-13.68,46.86-20.91,79.43-20.91c32.45,0,59.69,7.22,78.78,20.89
		c20.99,15.02,31.64,37.2,31.64,65.91c0,61.23-49.81,111.04-111.04,111.04S49.89,440.83,49.89,379.6z M734.61,438.57
		c-0.57,4.98-1.85,10.37-4.28,14.74c-2.56,4.61-5.61,8.1-9.2,12.01c-3.81,4.15-7.8,8.13-11.96,11.93c-3.85,3.52-7.64,6.78-11.73,9.6
		c-2.15,1.48-4.37,2.86-6.68,4.06c-2.35,1.22-4.01,1.95-6.6,2.77c-5.48,1.73-10.94,2.19-16.66,2.45
		c-11.06,0.5-22.06-0.28-32.34-4.65c-2.05-0.87-4.65-2.25-6.78-3.56c-1.98-1.22-4.75-0.43-5.9,1.55c-1.2,2.06-0.44,4.68,1.55,5.9
		c4.52,2.79,9.36,4.86,14.39,6.35c-2.1,18.99-15.53,34.38-29.4,46.43c-7.95,6.91-16.43,13.18-24.59,19.84
		c-8.31,6.79-16.89,13.06-25.88,18.92c-16.41,10.7-33.09,20.19-51.51,27c-20.57,7.61-41.78,13.77-63.14,18.71
		c-42,9.73-85.63,14.28-128.56,8.75c-20.73-2.67-41.22-7.66-60.92-14.63c-19.32-6.83-38.37-15.54-55.53-26.82
		c-16.33-10.73-29.31-24.84-39.12-41.7c-9.51-16.34-16.07-34.16-21.68-52.16c-0.93-2.98-1.82-5.97-2.71-8.96
		c8.24,1.79,16.78,2.74,25.54,2.74c66.3,0,120.24-53.94,120.24-120.24c0-7.22-0.65-14.09-1.92-20.6c1.51-2.99,3.12-5.94,4.21-9.12
		c1.16-3.4,1.97-7.51,0.51-10.92c-0.54-1.27-1.32-2.28-2.14-3.38c-0.15-0.2-0.3-0.41-0.44-0.62c0.8-0.82,2.09-2.27,2.29-2.46
		c1.4-1.29,2.13-1.87,3.56-2.84c1.24-0.84,2.52-1.61,3.85-2.3c1.69-0.88,2.41-1.21,4.11-1.76c3.23-1.05,5.85-0.67,9.32,0.22
		c7.13,1.83,14.2,3.92,21.19,6.22c6.74,2.22,13.41,4.66,20,7.29c-5.47,11.89-8.28,25.41-8.28,40.27
		c0,66.3,53.94,120.24,120.24,120.24c66.3,0,120.24-53.94,120.24-120.24c0-13.18-2.15-25.2-6.3-35.93
		c4.75-1.83,9.84-3.18,14.89-4.11c3.25-0.59,5.95-0.95,9.29-1.23c0.81-0.07,1.61-0.11,2.42-0.1c0.04,0,0.32,0.04,0.43,0.05
		c0.2,0.04,0.4,0.1,0.59,0.17c0.1,0.06,0.5,0.24,0.58,0.29c0.33,0.18,0.66,0.38,0.99,0.58c0.69,0.41,1.38,0.83,2.08,1.23
		c2.07,1.18,4.19,2.25,6.34,3.25c-1.14,2.84-2.33,5.66-3.5,8.43c-2.08,4.95-4.24,9.87-6.51,14.73c-0.51,1.09-1.02,2.18-1.55,3.26
		c-0.63,1.31-1.48,2.67-1.87,4.08c-0.89,3.23,1.17,5.66,3.31,7.77c6.84,6.76,16.49,10.68,26.11,10.56c0.19,0.16,0.38,0.32,0.6,0.44
		c2.07,1.21,4.66,0.43,5.9-1.55c2.63-4.2,4.95-7.19,8.41-10.79c1.66-1.73,3.4-3.37,5.22-4.93c1.89-1.61,2.9-2.4,4.99-3.85
		c3.93-2.73,8.13-5.08,12.53-6.97c0.02-0.01,0.03-0.01,0.04-0.02c0.26-0.11,0.53-0.22,0.79-0.32c0.56-0.22,1.11-0.44,1.68-0.64
		c1.18-0.44,2.37-0.84,3.57-1.21c2.55-0.78,5.38-1.5,7.8-1.71c5.5-0.49,10.43,0.62,15.69,2.46c0.98,0.34,1.95,0.72,2.91,1.1
		c0.06,0.02,0.09,0.04,0.12,0.05c0.25,0.11,0.5,0.22,0.75,0.33c0.57,0.25,1.13,0.51,1.69,0.78c1.93,0.93,3.81,1.95,5.64,3.06
		c1.89,1.14,3.72,2.38,5.49,3.7c0.04,0.03,0.26,0.2,0.39,0.3c0.13,0.1,0.34,0.26,0.38,0.29c0.38,0.3,0.75,0.6,1.13,0.91
		c0.9,0.75,1.79,1.52,2.66,2.31c1.58,1.45,3.1,2.96,4.55,4.55c0.75,0.82,1.48,1.65,2.18,2.5c0.35,0.42,0.7,0.85,1.05,1.29
		c0.13,0.16,0.26,0.33,0.39,0.49c0.03,0.04,0.05,0.07,0.06,0.08c0.03,0.04,0.07,0.1,0.15,0.2c2.63,3.57,4.99,7.31,6.96,11.28
		c0.46,0.93,0.9,1.87,1.32,2.81c0.02,0.05,0.13,0.3,0.2,0.45c0.06,0.15,0.16,0.38,0.18,0.43c0.23,0.58,0.46,1.15,0.68,1.73
		c0.78,2.07,1.46,4.17,2.03,6.3c0.56,2.07,1.01,4.16,1.37,6.27c0.05,0.27,0.09,0.55,0.13,0.82c0.01,0.06,0.05,0.32,0.07,0.48
		c0.01,0.1,0.03,0.2,0.03,0.22c0.03,0.27,0.07,0.55,0.1,0.82c0.14,1.25,0.24,2.5,0.3,3.75C735.67,426.75,735.28,432.7,734.61,438.57
		z M603.84,374.52c-0.74-0.71,0.23-0.11,0.66,0.68C604.29,374.97,604.07,374.74,603.84,374.52z M604.11,376.63
		C604.04,376.76,603.81,377.09,604.11,376.63L604.11,376.63z M604.15,376.57c0.2-0.29,0.36-0.62,0.51-0.96
		c0.08,0.36-0.03,0.72-0.52,0.97C604.15,376.58,604.15,376.58,604.15,376.57z"/>
	<path class="st9" d="M700.13,388.35c-5.65-0.55-11.35,1.25-16.55,3.28c-4.64,1.81-9.15,3.98-13.27,6.8
		c-4.26,2.91-8.04,6.34-11.18,10.44c-3.2,4.19-5.32,8.97-6.91,13.97c-1.72,5.42-3.02,11.64-5.23,16.45c-0.97,2.11-0.6,4.65,1.55,5.9
		c1.91,1.12,4.86,0.55,5.9-1.55c2.66-5.34,8.27-9.61,13.09-12.91c2.76-1.89,5.48-3.44,8.32-4.32c0.76-0.23,1.52-0.44,2.3-0.59
		c0.25-0.05,0.5-0.1,0.76-0.14c0,0.01,0.97-0.09,0.93-0.09c0.86-0.04,1.26,0,1.67,0.07c0.02,0,0.32,0.09,0.42,0.11
		c0.23,0.12,0.46,0.24,0.67,0.38c0.02,0.02,0.04,0.03,0.07,0.06c1.23,1.04,1.63,1.73,2.45,3c0.43,0.67,0.83,1.35,1.2,2.05
		c0.22,0.42,0.43,0.85,0.64,1.28c0.33,0.66,0.03-0.02,0.31,0.72c1.22,3.19,1.76,5.75,1.8,8.84c0.01,0.71-0.01,1.43-0.05,2.14
		c-0.03,0.42-0.06,0.85-0.11,1.27c-0.02,0.12-0.05,0.33-0.06,0.37c-0.16,0.75-0.34,1.49-0.56,2.23c-0.06,0.19-0.08,0.28-0.09,0.35
		c-0.04,0.05-0.09,0.14-0.19,0.29c-0.05,0.08-0.45,0.72-0.44,0.75c-0.21,0.25-0.45,0.48-0.68,0.69c-0.08,0.07-0.12,0.11-0.13,0.13
		c-0.07,0.04-0.15,0.08-0.27,0.15c-0.27,0.15-0.52,0.32-0.79,0.46c0.04-0.02-0.85,0.4-0.81,0.4c-1.51,0.63-3.12,1.09-4.71,1.47
		c-6.64,1.58-14.33,0.97-20.54-1.76c-2.13-0.94-4.63-0.62-5.9,1.55c-1.07,1.83-0.6,4.96,1.55,5.9c8.02,3.52,16.62,4.6,25.25,3.03
		c4.15-0.76,8.61-2.09,11.92-4.8c3.49-2.85,4.69-7.23,5.11-11.54c0.8-8.25-1.93-16.7-7.05-23.16c-2.91-3.67-6.93-5.48-11.63-5
		c-4.26,0.44-8.29,1.88-12.03,3.95c-2.21,1.22-4.31,2.66-6.33,4.19c1.07-3.35,2.3-6.42,4.28-9.47c0.28-0.43,0.57-0.85,0.86-1.27
		c0.07-0.1,0.5-0.66,0.59-0.79c0.7-0.87,1.44-1.72,2.22-2.53c0.71-0.74,1.44-1.45,2.2-2.13c0.44-0.39,0.88-0.77,1.33-1.15
		c0.17-0.14,0.86-0.68,0.93-0.74c3.61-2.69,7.57-4.9,11.7-6.67c0.02-0.01,0.02-0.01,0.04-0.02c0.04-0.01,0.09-0.03,0.17-0.07
		c0.34-0.14,0.69-0.28,1.04-0.41c0.55-0.22,1.11-0.42,1.67-0.63c1.29-0.47,2.59-0.9,3.9-1.29c3.02-0.89,5.55-1.36,8.69-1.06
		c2.25,0.22,4.41-2.14,4.31-4.31C704.33,390.14,702.55,388.58,700.13,388.35z"/>
</g>
</svg>
